M48
; DRILL file {KiCad (6.0.5)} date Thu Jun  1 20:28:25 2023
; FORMAT={-:-/ absolute / metric / decimal}
; #@! TF.CreationDate,2023-06-01T20:28:25+03:00
; #@! TF.GenerationSoftware,Kicad,Pcbnew,(6.0.5)
; #@! TF.FileFunction,Plated,1,2,PTH
FMAT,2
METRIC
; #@! TA.AperFunction,Plated,PTH,ViaDrill
T1C0.400
; #@! TA.AperFunction,Plated,PTH,ComponentDrill
T2C0.500
; #@! TA.AperFunction,Plated,PTH,ComponentDrill
T3C0.700
; #@! TA.AperFunction,Plated,PTH,ComponentDrill
T4C0.800
; #@! TA.AperFunction,Plated,PTH,ComponentDrill
T5C1.000
; #@! TA.AperFunction,Plated,PTH,ComponentDrill
T6C1.520
; #@! TA.AperFunction,Plated,PTH,ComponentDrill
T7C3.200
%
G90
G05
T1
X90.424Y-105.029
X90.424Y-108.331
X91.386Y-94.742
X91.386Y-99.568
X91.44Y-105.029
X91.44Y-108.331
X92.456Y-105.029
X92.456Y-108.331
X93.418Y-95.504
X95.082Y-78.092
X98.044Y-95.758
X99.06Y-95.758
X99.26Y-82.042
X100.076Y-95.758
X100.584Y-96.774
X100.584Y-97.79
X101.473Y-104.14
X104.086Y-85.598
X107.315Y-95.631
X109.166Y-103.886
X110.236Y-89.408
X110.236Y-91.948
X111.515Y-99.314
X112.268Y-93.218
X113.484Y-103.886
X114.639Y-86.092
X115.316Y-79.248
X116.532Y-99.822
X117.46Y-88.646
X117.548Y-103.886
X117.856Y-79.248
X118.056Y-99.06
X120.142Y-93.726
T2
X90.1Y-73.5
X90.803Y-71.803
X90.803Y-75.197
X92.5Y-71.1
X92.5Y-75.9
X94.197Y-71.803
X94.197Y-75.197
X94.9Y-73.5
X115.1Y-73.5
X115.803Y-71.803
X115.803Y-75.197
X117.5Y-71.1
X117.5Y-75.9
X119.197Y-71.803
X119.197Y-75.197
X119.9Y-73.5
T4
X110.69Y-110.49
X114.19Y-110.49
T5
X93.418Y-81.524
X93.418Y-84.064
X93.418Y-86.604
X93.418Y-89.144
X115.77Y-81.539
X115.77Y-84.079
X119.58Y-102.245
X119.58Y-104.785
X119.58Y-107.325
X119.58Y-109.865
T6
X91.64Y-119.38
X96.72Y-119.38
X103.135Y-119.38
X108.215Y-119.38
X113.295Y-119.38
X118.375Y-119.38
T7
X92.5Y-73.5
X117.5Y-73.5
T3
X92.04Y-111.11G85X92.04Y-112.41
G05
X95.84Y-111.11G85X95.84Y-112.41
G05
X100.14Y-111.11G85X100.14Y-112.41
G05
X103.94Y-111.11G85X103.94Y-112.41
G05
T0
M30
