%TF.GenerationSoftware,KiCad,Pcbnew,(6.0.5)*%
%TF.CreationDate,2023-06-01T20:28:18+03:00*%
%TF.ProjectId,led-controller,6c65642d-636f-46e7-9472-6f6c6c65722e,rev?*%
%TF.SameCoordinates,Original*%
%TF.FileFunction,Paste,Top*%
%TF.FilePolarity,Positive*%
%FSLAX46Y46*%
G04 Gerber Fmt 4.6, Leading zero omitted, Abs format (unit mm)*
G04 Created by KiCad (PCBNEW (6.0.5)) date 2023-06-01 20:28:18*
%MOMM*%
%LPD*%
G01*
G04 APERTURE LIST*
G04 Aperture macros list*
%AMRoundRect*
0 Rectangle with rounded corners*
0 $1 Rounding radius*
0 $2 $3 $4 $5 $6 $7 $8 $9 X,Y pos of 4 corners*
0 Add a 4 corners polygon primitive as box body*
4,1,4,$2,$3,$4,$5,$6,$7,$8,$9,$2,$3,0*
0 Add four circle primitives for the rounded corners*
1,1,$1+$1,$2,$3*
1,1,$1+$1,$4,$5*
1,1,$1+$1,$6,$7*
1,1,$1+$1,$8,$9*
0 Add four rect primitives between the rounded corners*
20,1,$1+$1,$2,$3,$4,$5,0*
20,1,$1+$1,$4,$5,$6,$7,0*
20,1,$1+$1,$6,$7,$8,$9,0*
20,1,$1+$1,$8,$9,$2,$3,0*%
G04 Aperture macros list end*
%ADD10RoundRect,0.237500X-0.300000X-0.237500X0.300000X-0.237500X0.300000X0.237500X-0.300000X0.237500X0*%
%ADD11RoundRect,0.237500X-0.250000X-0.237500X0.250000X-0.237500X0.250000X0.237500X-0.250000X0.237500X0*%
%ADD12RoundRect,0.237500X0.237500X-0.300000X0.237500X0.300000X-0.237500X0.300000X-0.237500X-0.300000X0*%
%ADD13R,1.000000X1.700000*%
%ADD14RoundRect,0.237500X0.250000X0.237500X-0.250000X0.237500X-0.250000X-0.237500X0.250000X-0.237500X0*%
%ADD15R,2.500000X1.800000*%
%ADD16RoundRect,0.237500X0.300000X0.237500X-0.300000X0.237500X-0.300000X-0.237500X0.300000X-0.237500X0*%
%ADD17RoundRect,0.150000X-0.150000X0.512500X-0.150000X-0.512500X0.150000X-0.512500X0.150000X0.512500X0*%
%ADD18R,2.000000X1.500000*%
%ADD19R,2.000000X3.800000*%
%ADD20RoundRect,0.250000X0.325000X0.450000X-0.325000X0.450000X-0.325000X-0.450000X0.325000X-0.450000X0*%
%ADD21R,2.500000X1.000000*%
%ADD22R,1.000000X1.800000*%
G04 APERTURE END LIST*
D10*
X98397500Y-104140000D03*
X100122500Y-104140000D03*
D11*
X110539500Y-97790000D03*
X112364500Y-97790000D03*
D12*
X107388000Y-98652500D03*
X107388000Y-96927500D03*
D13*
X95064000Y-96418000D03*
X95064000Y-102718000D03*
X91264000Y-96418000D03*
X91264000Y-102718000D03*
D14*
X112364500Y-105156000D03*
X110539500Y-105156000D03*
D15*
X95450000Y-106680000D03*
X91450000Y-106680000D03*
D16*
X94534500Y-93980000D03*
X92809500Y-93980000D03*
D14*
X115920500Y-98806000D03*
X114095500Y-98806000D03*
X116682500Y-105410000D03*
X114857500Y-105410000D03*
D17*
X112402000Y-100843500D03*
X111452000Y-100843500D03*
X110502000Y-100843500D03*
X110502000Y-103118500D03*
X111452000Y-103118500D03*
X112402000Y-103118500D03*
D10*
X115161500Y-87376000D03*
X116886500Y-87376000D03*
D16*
X94534500Y-92075000D03*
X92809500Y-92075000D03*
D17*
X116720000Y-101224500D03*
X115770000Y-101224500D03*
X114820000Y-101224500D03*
X114820000Y-103499500D03*
X115770000Y-103499500D03*
X116720000Y-103499500D03*
D18*
X98650000Y-97395000D03*
X98650000Y-99695000D03*
D19*
X104950000Y-99695000D03*
D18*
X98650000Y-101995000D03*
D20*
X104095000Y-106680000D03*
X102045000Y-106680000D03*
D13*
X116410000Y-90322000D03*
X116410000Y-96622000D03*
X120210000Y-96622000D03*
X120210000Y-90322000D03*
D21*
X96994000Y-78092000D03*
X96994000Y-80092000D03*
X96994000Y-82092000D03*
X96994000Y-84092000D03*
X96994000Y-86092000D03*
X96994000Y-88092000D03*
X96994000Y-90092000D03*
X96994000Y-92092000D03*
D22*
X99594000Y-93592000D03*
X101594000Y-93592000D03*
X103594000Y-93592000D03*
X105594000Y-93592000D03*
X107594000Y-93592000D03*
X109594000Y-93592000D03*
D21*
X112194000Y-92092000D03*
X112194000Y-90092000D03*
X112194000Y-88092000D03*
X112194000Y-86092000D03*
X112194000Y-84092000D03*
X112194000Y-82092000D03*
X112194000Y-80092000D03*
X112194000Y-78092000D03*
M02*
