%TF.GenerationSoftware,KiCad,Pcbnew,(6.0.5)*%
%TF.CreationDate,2023-06-01T20:28:18+03:00*%
%TF.ProjectId,led-controller,6c65642d-636f-46e7-9472-6f6c6c65722e,rev?*%
%TF.SameCoordinates,Original*%
%TF.FileFunction,Legend,Top*%
%TF.FilePolarity,Positive*%
%FSLAX46Y46*%
G04 Gerber Fmt 4.6, Leading zero omitted, Abs format (unit mm)*
G04 Created by KiCad (PCBNEW (6.0.5)) date 2023-06-01 20:28:18*
%MOMM*%
%LPD*%
G01*
G04 APERTURE LIST*
G04 Aperture macros list*
%AMRoundRect*
0 Rectangle with rounded corners*
0 $1 Rounding radius*
0 $2 $3 $4 $5 $6 $7 $8 $9 X,Y pos of 4 corners*
0 Add a 4 corners polygon primitive as box body*
4,1,4,$2,$3,$4,$5,$6,$7,$8,$9,$2,$3,0*
0 Add four circle primitives for the rounded corners*
1,1,$1+$1,$2,$3*
1,1,$1+$1,$4,$5*
1,1,$1+$1,$6,$7*
1,1,$1+$1,$8,$9*
0 Add four rect primitives between the rounded corners*
20,1,$1+$1,$2,$3,$4,$5,0*
20,1,$1+$1,$4,$5,$6,$7,0*
20,1,$1+$1,$6,$7,$8,$9,0*
20,1,$1+$1,$8,$9,$2,$3,0*%
G04 Aperture macros list end*
%ADD10C,0.150000*%
%ADD11C,0.120000*%
%ADD12RoundRect,0.237500X-0.300000X-0.237500X0.300000X-0.237500X0.300000X0.237500X-0.300000X0.237500X0*%
%ADD13R,1.700000X1.700000*%
%ADD14O,1.700000X1.700000*%
%ADD15RoundRect,0.237500X-0.250000X-0.237500X0.250000X-0.237500X0.250000X0.237500X-0.250000X0.237500X0*%
%ADD16RoundRect,0.237500X0.237500X-0.300000X0.237500X0.300000X-0.237500X0.300000X-0.237500X-0.300000X0*%
%ADD17R,1.000000X1.700000*%
%ADD18C,1.500000*%
%ADD19RoundRect,0.237500X0.250000X0.237500X-0.250000X0.237500X-0.250000X-0.237500X0.250000X-0.237500X0*%
%ADD20R,2.500000X1.800000*%
%ADD21RoundRect,0.237500X0.300000X0.237500X-0.300000X0.237500X-0.300000X-0.237500X0.300000X-0.237500X0*%
%ADD22O,3.000000X3.500000*%
%ADD23R,1.600000X1.600000*%
%ADD24C,1.600000*%
%ADD25R,3.000000X3.000000*%
%ADD26C,3.000000*%
%ADD27C,0.800000*%
%ADD28C,6.400000*%
%ADD29RoundRect,0.150000X-0.150000X0.512500X-0.150000X-0.512500X0.150000X-0.512500X0.150000X0.512500X0*%
%ADD30R,2.000000X1.500000*%
%ADD31R,2.000000X3.800000*%
%ADD32RoundRect,0.250000X0.325000X0.450000X-0.325000X0.450000X-0.325000X-0.450000X0.325000X-0.450000X0*%
%ADD33R,2.500000X1.000000*%
%ADD34R,1.000000X1.800000*%
G04 APERTURE END LIST*
D10*
X117400428Y-103120714D02*
X117400428Y-102749285D01*
X117629000Y-102949285D01*
X117629000Y-102863571D01*
X117657571Y-102806428D01*
X117686142Y-102777857D01*
X117743285Y-102749285D01*
X117886142Y-102749285D01*
X117943285Y-102777857D01*
X117971857Y-102806428D01*
X118000428Y-102863571D01*
X118000428Y-103035000D01*
X117971857Y-103092142D01*
X117943285Y-103120714D01*
X117943285Y-102492142D02*
X117971857Y-102463571D01*
X118000428Y-102492142D01*
X117971857Y-102520714D01*
X117943285Y-102492142D01*
X118000428Y-102492142D01*
X117400428Y-102263571D02*
X117400428Y-101892142D01*
X117629000Y-102092142D01*
X117629000Y-102006428D01*
X117657571Y-101949285D01*
X117686142Y-101920714D01*
X117743285Y-101892142D01*
X117886142Y-101892142D01*
X117943285Y-101920714D01*
X117971857Y-101949285D01*
X118000428Y-102006428D01*
X118000428Y-102177857D01*
X117971857Y-102235000D01*
X117943285Y-102263571D01*
X117400428Y-101720714D02*
X118000428Y-101520714D01*
X117400428Y-101320714D01*
X117429000Y-110312142D02*
X117400428Y-110369285D01*
X117400428Y-110455000D01*
X117429000Y-110540714D01*
X117486142Y-110597857D01*
X117543285Y-110626428D01*
X117657571Y-110655000D01*
X117743285Y-110655000D01*
X117857571Y-110626428D01*
X117914714Y-110597857D01*
X117971857Y-110540714D01*
X118000428Y-110455000D01*
X118000428Y-110397857D01*
X117971857Y-110312142D01*
X117943285Y-110283571D01*
X117743285Y-110283571D01*
X117743285Y-110397857D01*
X118000428Y-110026428D02*
X117400428Y-110026428D01*
X118000428Y-109683571D01*
X117400428Y-109683571D01*
X118000428Y-109397857D02*
X117400428Y-109397857D01*
X117400428Y-109255000D01*
X117429000Y-109169285D01*
X117486142Y-109112142D01*
X117543285Y-109083571D01*
X117657571Y-109055000D01*
X117743285Y-109055000D01*
X117857571Y-109083571D01*
X117914714Y-109112142D01*
X117971857Y-109169285D01*
X118000428Y-109255000D01*
X118000428Y-109397857D01*
X117400428Y-105232142D02*
X117400428Y-104889285D01*
X118000428Y-105060714D02*
X117400428Y-105060714D01*
X117400428Y-104746428D02*
X118000428Y-104346428D01*
X117400428Y-104346428D02*
X118000428Y-104746428D01*
X118000428Y-107415000D02*
X117714714Y-107615000D01*
X118000428Y-107757857D02*
X117400428Y-107757857D01*
X117400428Y-107529285D01*
X117429000Y-107472142D01*
X117457571Y-107443571D01*
X117514714Y-107415000D01*
X117600428Y-107415000D01*
X117657571Y-107443571D01*
X117686142Y-107472142D01*
X117714714Y-107529285D01*
X117714714Y-107757857D01*
X117400428Y-107215000D02*
X118000428Y-106815000D01*
X117400428Y-106815000D02*
X118000428Y-107215000D01*
X114623857Y-94487857D02*
X114623857Y-94754523D01*
X115042904Y-94754523D02*
X114242904Y-94754523D01*
X114242904Y-94373571D01*
X115042904Y-93954523D02*
X115004809Y-94030714D01*
X114928619Y-94068809D01*
X114242904Y-94068809D01*
X115042904Y-93306904D02*
X114623857Y-93306904D01*
X114547666Y-93345000D01*
X114509571Y-93421190D01*
X114509571Y-93573571D01*
X114547666Y-93649761D01*
X115004809Y-93306904D02*
X115042904Y-93383095D01*
X115042904Y-93573571D01*
X115004809Y-93649761D01*
X114928619Y-93687857D01*
X114852428Y-93687857D01*
X114776238Y-93649761D01*
X114738142Y-93573571D01*
X114738142Y-93383095D01*
X114700047Y-93306904D01*
X115004809Y-92964047D02*
X115042904Y-92887857D01*
X115042904Y-92735476D01*
X115004809Y-92659285D01*
X114928619Y-92621190D01*
X114890523Y-92621190D01*
X114814333Y-92659285D01*
X114776238Y-92735476D01*
X114776238Y-92849761D01*
X114738142Y-92925952D01*
X114661952Y-92964047D01*
X114623857Y-92964047D01*
X114547666Y-92925952D01*
X114509571Y-92849761D01*
X114509571Y-92735476D01*
X114547666Y-92659285D01*
X115042904Y-92278333D02*
X114242904Y-92278333D01*
X115042904Y-91935476D02*
X114623857Y-91935476D01*
X114547666Y-91973571D01*
X114509571Y-92049761D01*
X114509571Y-92164047D01*
X114547666Y-92240238D01*
X114585761Y-92278333D01*
X112688761Y-124690142D02*
X112641142Y-124737761D01*
X112498285Y-124785380D01*
X112403047Y-124785380D01*
X112260190Y-124737761D01*
X112164952Y-124642523D01*
X112117333Y-124547285D01*
X112069714Y-124356809D01*
X112069714Y-124213952D01*
X112117333Y-124023476D01*
X112164952Y-123928238D01*
X112260190Y-123833000D01*
X112403047Y-123785380D01*
X112498285Y-123785380D01*
X112641142Y-123833000D01*
X112688761Y-123880619D01*
X113593523Y-124785380D02*
X113117333Y-124785380D01*
X113117333Y-123785380D01*
X113926857Y-124785380D02*
X113926857Y-123785380D01*
X114498285Y-124785380D02*
X114069714Y-124213952D01*
X114498285Y-123785380D02*
X113926857Y-124356809D01*
X118357809Y-99383904D02*
X118357809Y-100031523D01*
X118395904Y-100107714D01*
X118434000Y-100145809D01*
X118510190Y-100183904D01*
X118662571Y-100183904D01*
X118738761Y-100145809D01*
X118776857Y-100107714D01*
X118814952Y-100031523D01*
X118814952Y-99383904D01*
X119157809Y-99955333D02*
X119538761Y-99955333D01*
X119081619Y-100183904D02*
X119348285Y-99383904D01*
X119614952Y-100183904D01*
X120338761Y-100183904D02*
X120072095Y-99802952D01*
X119881619Y-100183904D02*
X119881619Y-99383904D01*
X120186380Y-99383904D01*
X120262571Y-99422000D01*
X120300666Y-99460095D01*
X120338761Y-99536285D01*
X120338761Y-99650571D01*
X120300666Y-99726761D01*
X120262571Y-99764857D01*
X120186380Y-99802952D01*
X119881619Y-99802952D01*
X120567333Y-99383904D02*
X121024476Y-99383904D01*
X120795904Y-100183904D02*
X120795904Y-99383904D01*
X89209714Y-87066380D02*
X89209714Y-86066380D01*
X89447809Y-86066380D01*
X89590666Y-86114000D01*
X89685904Y-86209238D01*
X89733523Y-86304476D01*
X89781142Y-86494952D01*
X89781142Y-86637809D01*
X89733523Y-86828285D01*
X89685904Y-86923523D01*
X89590666Y-87018761D01*
X89447809Y-87066380D01*
X89209714Y-87066380D01*
X90733523Y-87066380D02*
X90162095Y-87066380D01*
X90447809Y-87066380D02*
X90447809Y-86066380D01*
X90352571Y-86209238D01*
X90257333Y-86304476D01*
X90162095Y-86352095D01*
X91114476Y-86161619D02*
X91162095Y-86114000D01*
X91257333Y-86066380D01*
X91495428Y-86066380D01*
X91590666Y-86114000D01*
X91638285Y-86161619D01*
X91685904Y-86256857D01*
X91685904Y-86352095D01*
X91638285Y-86494952D01*
X91066857Y-87066380D01*
X91685904Y-87066380D01*
X103060523Y-123785380D02*
X102584333Y-123785380D01*
X102536714Y-124261571D01*
X102584333Y-124213952D01*
X102679571Y-124166333D01*
X102917666Y-124166333D01*
X103012904Y-124213952D01*
X103060523Y-124261571D01*
X103108142Y-124356809D01*
X103108142Y-124594904D01*
X103060523Y-124690142D01*
X103012904Y-124737761D01*
X102917666Y-124785380D01*
X102679571Y-124785380D01*
X102584333Y-124737761D01*
X102536714Y-124690142D01*
X103393857Y-123785380D02*
X103727190Y-124785380D01*
X104060523Y-123785380D01*
X90805095Y-123960000D02*
X90709857Y-123912380D01*
X90567000Y-123912380D01*
X90424142Y-123960000D01*
X90328904Y-124055238D01*
X90281285Y-124150476D01*
X90233666Y-124340952D01*
X90233666Y-124483809D01*
X90281285Y-124674285D01*
X90328904Y-124769523D01*
X90424142Y-124864761D01*
X90567000Y-124912380D01*
X90662238Y-124912380D01*
X90805095Y-124864761D01*
X90852714Y-124817142D01*
X90852714Y-124483809D01*
X90662238Y-124483809D01*
X91281285Y-124912380D02*
X91281285Y-123912380D01*
X91852714Y-124912380D01*
X91852714Y-123912380D01*
X92328904Y-124912380D02*
X92328904Y-123912380D01*
X92567000Y-123912380D01*
X92709857Y-123960000D01*
X92805095Y-124055238D01*
X92852714Y-124150476D01*
X92900333Y-124340952D01*
X92900333Y-124483809D01*
X92852714Y-124674285D01*
X92805095Y-124769523D01*
X92709857Y-124864761D01*
X92567000Y-124912380D01*
X92328904Y-124912380D01*
X89209714Y-84526380D02*
X89209714Y-83526380D01*
X89447809Y-83526380D01*
X89590666Y-83574000D01*
X89685904Y-83669238D01*
X89733523Y-83764476D01*
X89781142Y-83954952D01*
X89781142Y-84097809D01*
X89733523Y-84288285D01*
X89685904Y-84383523D01*
X89590666Y-84478761D01*
X89447809Y-84526380D01*
X89209714Y-84526380D01*
X90733523Y-84526380D02*
X90162095Y-84526380D01*
X90447809Y-84526380D02*
X90447809Y-83526380D01*
X90352571Y-83669238D01*
X90257333Y-83764476D01*
X90162095Y-83812095D01*
X91590666Y-83859714D02*
X91590666Y-84526380D01*
X91352571Y-83478761D02*
X91114476Y-84193047D01*
X91733523Y-84193047D01*
X117602095Y-123960000D02*
X117506857Y-123912380D01*
X117364000Y-123912380D01*
X117221142Y-123960000D01*
X117125904Y-124055238D01*
X117078285Y-124150476D01*
X117030666Y-124340952D01*
X117030666Y-124483809D01*
X117078285Y-124674285D01*
X117125904Y-124769523D01*
X117221142Y-124864761D01*
X117364000Y-124912380D01*
X117459238Y-124912380D01*
X117602095Y-124864761D01*
X117649714Y-124817142D01*
X117649714Y-124483809D01*
X117459238Y-124483809D01*
X118078285Y-124912380D02*
X118078285Y-123912380D01*
X118649714Y-124912380D01*
X118649714Y-123912380D01*
X119125904Y-124912380D02*
X119125904Y-123912380D01*
X119364000Y-123912380D01*
X119506857Y-123960000D01*
X119602095Y-124055238D01*
X119649714Y-124150476D01*
X119697333Y-124340952D01*
X119697333Y-124483809D01*
X119649714Y-124674285D01*
X119602095Y-124769523D01*
X119506857Y-124864761D01*
X119364000Y-124912380D01*
X119125904Y-124912380D01*
X89209714Y-82113380D02*
X89209714Y-81113380D01*
X89447809Y-81113380D01*
X89590666Y-81161000D01*
X89685904Y-81256238D01*
X89733523Y-81351476D01*
X89781142Y-81541952D01*
X89781142Y-81684809D01*
X89733523Y-81875285D01*
X89685904Y-81970523D01*
X89590666Y-82065761D01*
X89447809Y-82113380D01*
X89209714Y-82113380D01*
X90733523Y-82113380D02*
X90162095Y-82113380D01*
X90447809Y-82113380D02*
X90447809Y-81113380D01*
X90352571Y-81256238D01*
X90257333Y-81351476D01*
X90162095Y-81399095D01*
X91590666Y-81113380D02*
X91400190Y-81113380D01*
X91304952Y-81161000D01*
X91257333Y-81208619D01*
X91162095Y-81351476D01*
X91114476Y-81541952D01*
X91114476Y-81922904D01*
X91162095Y-82018142D01*
X91209714Y-82065761D01*
X91304952Y-82113380D01*
X91495428Y-82113380D01*
X91590666Y-82065761D01*
X91638285Y-82018142D01*
X91685904Y-81922904D01*
X91685904Y-81684809D01*
X91638285Y-81589571D01*
X91590666Y-81541952D01*
X91495428Y-81494333D01*
X91304952Y-81494333D01*
X91209714Y-81541952D01*
X91162095Y-81589571D01*
X91114476Y-81684809D01*
X93941952Y-125837904D02*
X93941952Y-125037904D01*
X94322904Y-125837904D02*
X94322904Y-125037904D01*
X94780047Y-125837904D01*
X94780047Y-125037904D01*
X89209714Y-89606380D02*
X89209714Y-88606380D01*
X89447809Y-88606380D01*
X89590666Y-88654000D01*
X89685904Y-88749238D01*
X89733523Y-88844476D01*
X89781142Y-89034952D01*
X89781142Y-89177809D01*
X89733523Y-89368285D01*
X89685904Y-89463523D01*
X89590666Y-89558761D01*
X89447809Y-89606380D01*
X89209714Y-89606380D01*
X90733523Y-89606380D02*
X90162095Y-89606380D01*
X90447809Y-89606380D02*
X90447809Y-88606380D01*
X90352571Y-88749238D01*
X90257333Y-88844476D01*
X90162095Y-88892095D01*
X91066857Y-88606380D02*
X91685904Y-88606380D01*
X91352571Y-88987333D01*
X91495428Y-88987333D01*
X91590666Y-89034952D01*
X91638285Y-89082571D01*
X91685904Y-89177809D01*
X91685904Y-89415904D01*
X91638285Y-89511142D01*
X91590666Y-89558761D01*
X91495428Y-89606380D01*
X91209714Y-89606380D01*
X91114476Y-89558761D01*
X91066857Y-89511142D01*
X117879904Y-84526380D02*
X117879904Y-83526380D01*
X118118000Y-83526380D01*
X118260857Y-83574000D01*
X118356095Y-83669238D01*
X118403714Y-83764476D01*
X118451333Y-83954952D01*
X118451333Y-84097809D01*
X118403714Y-84288285D01*
X118356095Y-84383523D01*
X118260857Y-84478761D01*
X118118000Y-84526380D01*
X117879904Y-84526380D01*
X119308476Y-83859714D02*
X119308476Y-84526380D01*
X119070380Y-83478761D02*
X118832285Y-84193047D01*
X119451333Y-84193047D01*
X96583523Y-123912380D02*
X96107333Y-123912380D01*
X96059714Y-124388571D01*
X96107333Y-124340952D01*
X96202571Y-124293333D01*
X96440666Y-124293333D01*
X96535904Y-124340952D01*
X96583523Y-124388571D01*
X96631142Y-124483809D01*
X96631142Y-124721904D01*
X96583523Y-124817142D01*
X96535904Y-124864761D01*
X96440666Y-124912380D01*
X96202571Y-124912380D01*
X96107333Y-124864761D01*
X96059714Y-124817142D01*
X96916857Y-123912380D02*
X97250190Y-124912380D01*
X97583523Y-123912380D01*
X109817000Y-125037904D02*
X109969380Y-125037904D01*
X110045571Y-125076000D01*
X110121761Y-125152190D01*
X110159857Y-125304571D01*
X110159857Y-125571238D01*
X110121761Y-125723619D01*
X110045571Y-125799809D01*
X109969380Y-125837904D01*
X109817000Y-125837904D01*
X109740809Y-125799809D01*
X109664619Y-125723619D01*
X109626523Y-125571238D01*
X109626523Y-125304571D01*
X109664619Y-125152190D01*
X109740809Y-125076000D01*
X109817000Y-125037904D01*
X110502714Y-125037904D02*
X110502714Y-125685523D01*
X110540809Y-125761714D01*
X110578904Y-125799809D01*
X110655095Y-125837904D01*
X110807476Y-125837904D01*
X110883666Y-125799809D01*
X110921761Y-125761714D01*
X110959857Y-125685523D01*
X110959857Y-125037904D01*
X111226523Y-125037904D02*
X111683666Y-125037904D01*
X111455095Y-125837904D02*
X111455095Y-125037904D01*
X117879904Y-82113380D02*
X117879904Y-81113380D01*
X118118000Y-81113380D01*
X118260857Y-81161000D01*
X118356095Y-81256238D01*
X118403714Y-81351476D01*
X118451333Y-81541952D01*
X118451333Y-81684809D01*
X118403714Y-81875285D01*
X118356095Y-81970523D01*
X118260857Y-82065761D01*
X118118000Y-82113380D01*
X117879904Y-82113380D01*
X119356095Y-81113380D02*
X118879904Y-81113380D01*
X118832285Y-81589571D01*
X118879904Y-81541952D01*
X118975142Y-81494333D01*
X119213238Y-81494333D01*
X119308476Y-81541952D01*
X119356095Y-81589571D01*
X119403714Y-81684809D01*
X119403714Y-81922904D01*
X119356095Y-82018142D01*
X119308476Y-82065761D01*
X119213238Y-82113380D01*
X118975142Y-82113380D01*
X118879904Y-82065761D01*
X118832285Y-82018142D01*
X106704000Y-124785380D02*
X106704000Y-123785380D01*
X106942095Y-123785380D01*
X107084952Y-123833000D01*
X107180190Y-123928238D01*
X107227809Y-124023476D01*
X107275428Y-124213952D01*
X107275428Y-124356809D01*
X107227809Y-124547285D01*
X107180190Y-124642523D01*
X107084952Y-124737761D01*
X106942095Y-124785380D01*
X106704000Y-124785380D01*
X107656380Y-124499666D02*
X108132571Y-124499666D01*
X107561142Y-124785380D02*
X107894476Y-123785380D01*
X108227809Y-124785380D01*
X108418285Y-123785380D02*
X108989714Y-123785380D01*
X108704000Y-124785380D02*
X108704000Y-123785380D01*
X109275428Y-124499666D02*
X109751619Y-124499666D01*
X109180190Y-124785380D02*
X109513523Y-123785380D01*
X109846857Y-124785380D01*
X89896904Y-100558476D02*
X89515952Y-100825142D01*
X89896904Y-101015619D02*
X89096904Y-101015619D01*
X89096904Y-100710857D01*
X89135000Y-100634666D01*
X89173095Y-100596571D01*
X89249285Y-100558476D01*
X89363571Y-100558476D01*
X89439761Y-100596571D01*
X89477857Y-100634666D01*
X89515952Y-100710857D01*
X89515952Y-101015619D01*
X89858809Y-99910857D02*
X89896904Y-99987047D01*
X89896904Y-100139428D01*
X89858809Y-100215619D01*
X89782619Y-100253714D01*
X89477857Y-100253714D01*
X89401666Y-100215619D01*
X89363571Y-100139428D01*
X89363571Y-99987047D01*
X89401666Y-99910857D01*
X89477857Y-99872761D01*
X89554047Y-99872761D01*
X89630238Y-100253714D01*
X89858809Y-99568000D02*
X89896904Y-99491809D01*
X89896904Y-99339428D01*
X89858809Y-99263238D01*
X89782619Y-99225142D01*
X89744523Y-99225142D01*
X89668333Y-99263238D01*
X89630238Y-99339428D01*
X89630238Y-99453714D01*
X89592142Y-99529904D01*
X89515952Y-99568000D01*
X89477857Y-99568000D01*
X89401666Y-99529904D01*
X89363571Y-99453714D01*
X89363571Y-99339428D01*
X89401666Y-99263238D01*
X89858809Y-98577523D02*
X89896904Y-98653714D01*
X89896904Y-98806095D01*
X89858809Y-98882285D01*
X89782619Y-98920380D01*
X89477857Y-98920380D01*
X89401666Y-98882285D01*
X89363571Y-98806095D01*
X89363571Y-98653714D01*
X89401666Y-98577523D01*
X89477857Y-98539428D01*
X89554047Y-98539428D01*
X89630238Y-98920380D01*
X89363571Y-98310857D02*
X89363571Y-98006095D01*
X89096904Y-98196571D02*
X89782619Y-98196571D01*
X89858809Y-98158476D01*
X89896904Y-98082285D01*
X89896904Y-98006095D01*
X102703333Y-104497142D02*
X102655714Y-104544761D01*
X102512857Y-104592380D01*
X102417619Y-104592380D01*
X102274761Y-104544761D01*
X102179523Y-104449523D01*
X102131904Y-104354285D01*
X102084285Y-104163809D01*
X102084285Y-104020952D01*
X102131904Y-103830476D01*
X102179523Y-103735238D01*
X102274761Y-103640000D01*
X102417619Y-103592380D01*
X102512857Y-103592380D01*
X102655714Y-103640000D01*
X102703333Y-103687619D01*
X103084285Y-103687619D02*
X103131904Y-103640000D01*
X103227142Y-103592380D01*
X103465238Y-103592380D01*
X103560476Y-103640000D01*
X103608095Y-103687619D01*
X103655714Y-103782857D01*
X103655714Y-103878095D01*
X103608095Y-104020952D01*
X103036666Y-104592380D01*
X103655714Y-104592380D01*
X111285333Y-96812380D02*
X110952000Y-96336190D01*
X110713904Y-96812380D02*
X110713904Y-95812380D01*
X111094857Y-95812380D01*
X111190095Y-95860000D01*
X111237714Y-95907619D01*
X111285333Y-96002857D01*
X111285333Y-96145714D01*
X111237714Y-96240952D01*
X111190095Y-96288571D01*
X111094857Y-96336190D01*
X110713904Y-96336190D01*
X112190095Y-95812380D02*
X111713904Y-95812380D01*
X111666285Y-96288571D01*
X111713904Y-96240952D01*
X111809142Y-96193333D01*
X112047238Y-96193333D01*
X112142476Y-96240952D01*
X112190095Y-96288571D01*
X112237714Y-96383809D01*
X112237714Y-96621904D01*
X112190095Y-96717142D01*
X112142476Y-96764761D01*
X112047238Y-96812380D01*
X111809142Y-96812380D01*
X111713904Y-96764761D01*
X111666285Y-96717142D01*
X109323142Y-97956666D02*
X109370761Y-98004285D01*
X109418380Y-98147142D01*
X109418380Y-98242380D01*
X109370761Y-98385238D01*
X109275523Y-98480476D01*
X109180285Y-98528095D01*
X108989809Y-98575714D01*
X108846952Y-98575714D01*
X108656476Y-98528095D01*
X108561238Y-98480476D01*
X108466000Y-98385238D01*
X108418380Y-98242380D01*
X108418380Y-98147142D01*
X108466000Y-98004285D01*
X108513619Y-97956666D01*
X108418380Y-97623333D02*
X108418380Y-97004285D01*
X108799333Y-97337619D01*
X108799333Y-97194761D01*
X108846952Y-97099523D01*
X108894571Y-97051904D01*
X108989809Y-97004285D01*
X109227904Y-97004285D01*
X109323142Y-97051904D01*
X109370761Y-97099523D01*
X109418380Y-97194761D01*
X109418380Y-97480476D01*
X109370761Y-97575714D01*
X109323142Y-97623333D01*
X99953857Y-105081428D02*
X100296714Y-105081428D01*
X100125285Y-105681428D02*
X100125285Y-105081428D01*
X100496714Y-105681428D02*
X100496714Y-105081428D01*
X100725285Y-105081428D01*
X100782428Y-105110000D01*
X100811000Y-105138571D01*
X100839571Y-105195714D01*
X100839571Y-105281428D01*
X100811000Y-105338571D01*
X100782428Y-105367142D01*
X100725285Y-105395714D01*
X100496714Y-105395714D01*
X101411000Y-105681428D02*
X101068142Y-105681428D01*
X101239571Y-105681428D02*
X101239571Y-105081428D01*
X101182428Y-105167142D01*
X101125285Y-105224285D01*
X101068142Y-105252857D01*
X108672333Y-105735380D02*
X108339000Y-105259190D01*
X108100904Y-105735380D02*
X108100904Y-104735380D01*
X108481857Y-104735380D01*
X108577095Y-104783000D01*
X108624714Y-104830619D01*
X108672333Y-104925857D01*
X108672333Y-105068714D01*
X108624714Y-105163952D01*
X108577095Y-105211571D01*
X108481857Y-105259190D01*
X108100904Y-105259190D01*
X109005666Y-104735380D02*
X109672333Y-104735380D01*
X109243761Y-105735380D01*
X95781904Y-104719380D02*
X95781904Y-103719380D01*
X96020000Y-103719380D01*
X96162857Y-103767000D01*
X96258095Y-103862238D01*
X96305714Y-103957476D01*
X96353333Y-104147952D01*
X96353333Y-104290809D01*
X96305714Y-104481285D01*
X96258095Y-104576523D01*
X96162857Y-104671761D01*
X96020000Y-104719380D01*
X95781904Y-104719380D01*
X97305714Y-104719380D02*
X96734285Y-104719380D01*
X97020000Y-104719380D02*
X97020000Y-103719380D01*
X96924761Y-103862238D01*
X96829523Y-103957476D01*
X96734285Y-104005095D01*
X90765333Y-94337142D02*
X90717714Y-94384761D01*
X90574857Y-94432380D01*
X90479619Y-94432380D01*
X90336761Y-94384761D01*
X90241523Y-94289523D01*
X90193904Y-94194285D01*
X90146285Y-94003809D01*
X90146285Y-93860952D01*
X90193904Y-93670476D01*
X90241523Y-93575238D01*
X90336761Y-93480000D01*
X90479619Y-93432380D01*
X90574857Y-93432380D01*
X90717714Y-93480000D01*
X90765333Y-93527619D01*
X91670095Y-93432380D02*
X91193904Y-93432380D01*
X91146285Y-93908571D01*
X91193904Y-93860952D01*
X91289142Y-93813333D01*
X91527238Y-93813333D01*
X91622476Y-93860952D01*
X91670095Y-93908571D01*
X91717714Y-94003809D01*
X91717714Y-94241904D01*
X91670095Y-94337142D01*
X91622476Y-94384761D01*
X91527238Y-94432380D01*
X91289142Y-94432380D01*
X91193904Y-94384761D01*
X91146285Y-94337142D01*
X97706666Y-108538571D02*
X97373333Y-108538571D01*
X97373333Y-109062380D02*
X97373333Y-108062380D01*
X97849523Y-108062380D01*
X98754285Y-109062380D02*
X98182857Y-109062380D01*
X98468571Y-109062380D02*
X98468571Y-108062380D01*
X98373333Y-108205238D01*
X98278095Y-108300476D01*
X98182857Y-108348095D01*
X108672333Y-114657142D02*
X108624714Y-114704761D01*
X108481857Y-114752380D01*
X108386619Y-114752380D01*
X108243761Y-114704761D01*
X108148523Y-114609523D01*
X108100904Y-114514285D01*
X108053285Y-114323809D01*
X108053285Y-114180952D01*
X108100904Y-113990476D01*
X108148523Y-113895238D01*
X108243761Y-113800000D01*
X108386619Y-113752380D01*
X108481857Y-113752380D01*
X108624714Y-113800000D01*
X108672333Y-113847619D01*
X109624714Y-114752380D02*
X109053285Y-114752380D01*
X109339000Y-114752380D02*
X109339000Y-113752380D01*
X109243761Y-113895238D01*
X109148523Y-113990476D01*
X109053285Y-114038095D01*
X114133333Y-97861380D02*
X113800000Y-97385190D01*
X113561904Y-97861380D02*
X113561904Y-96861380D01*
X113942857Y-96861380D01*
X114038095Y-96909000D01*
X114085714Y-96956619D01*
X114133333Y-97051857D01*
X114133333Y-97194714D01*
X114085714Y-97289952D01*
X114038095Y-97337571D01*
X113942857Y-97385190D01*
X113561904Y-97385190D01*
X114466666Y-96861380D02*
X115085714Y-96861380D01*
X114752380Y-97242333D01*
X114895238Y-97242333D01*
X114990476Y-97289952D01*
X115038095Y-97337571D01*
X115085714Y-97432809D01*
X115085714Y-97670904D01*
X115038095Y-97766142D01*
X114990476Y-97813761D01*
X114895238Y-97861380D01*
X114609523Y-97861380D01*
X114514285Y-97813761D01*
X114466666Y-97766142D01*
X115944666Y-107168904D02*
X115678000Y-106787952D01*
X115487523Y-107168904D02*
X115487523Y-106368904D01*
X115792285Y-106368904D01*
X115868476Y-106407000D01*
X115906571Y-106445095D01*
X115944666Y-106521285D01*
X115944666Y-106635571D01*
X115906571Y-106711761D01*
X115868476Y-106749857D01*
X115792285Y-106787952D01*
X115487523Y-106787952D01*
X116401809Y-106711761D02*
X116325619Y-106673666D01*
X116287523Y-106635571D01*
X116249428Y-106559380D01*
X116249428Y-106521285D01*
X116287523Y-106445095D01*
X116325619Y-106407000D01*
X116401809Y-106368904D01*
X116554190Y-106368904D01*
X116630380Y-106407000D01*
X116668476Y-106445095D01*
X116706571Y-106521285D01*
X116706571Y-106559380D01*
X116668476Y-106635571D01*
X116630380Y-106673666D01*
X116554190Y-106711761D01*
X116401809Y-106711761D01*
X116325619Y-106749857D01*
X116287523Y-106787952D01*
X116249428Y-106864142D01*
X116249428Y-107016523D01*
X116287523Y-107092714D01*
X116325619Y-107130809D01*
X116401809Y-107168904D01*
X116554190Y-107168904D01*
X116630380Y-107130809D01*
X116668476Y-107092714D01*
X116706571Y-107016523D01*
X116706571Y-106864142D01*
X116668476Y-106787952D01*
X116630380Y-106749857D01*
X116554190Y-106711761D01*
X110617095Y-98766380D02*
X110617095Y-99575904D01*
X110664714Y-99671142D01*
X110712333Y-99718761D01*
X110807571Y-99766380D01*
X110998047Y-99766380D01*
X111093285Y-99718761D01*
X111140904Y-99671142D01*
X111188523Y-99575904D01*
X111188523Y-98766380D01*
X111569476Y-98766380D02*
X112188523Y-98766380D01*
X111855190Y-99147333D01*
X111998047Y-99147333D01*
X112093285Y-99194952D01*
X112140904Y-99242571D01*
X112188523Y-99337809D01*
X112188523Y-99575904D01*
X112140904Y-99671142D01*
X112093285Y-99718761D01*
X111998047Y-99766380D01*
X111712333Y-99766380D01*
X111617095Y-99718761D01*
X111569476Y-99671142D01*
X118705333Y-87733142D02*
X118657714Y-87780761D01*
X118514857Y-87828380D01*
X118419619Y-87828380D01*
X118276761Y-87780761D01*
X118181523Y-87685523D01*
X118133904Y-87590285D01*
X118086285Y-87399809D01*
X118086285Y-87256952D01*
X118133904Y-87066476D01*
X118181523Y-86971238D01*
X118276761Y-86876000D01*
X118419619Y-86828380D01*
X118514857Y-86828380D01*
X118657714Y-86876000D01*
X118705333Y-86923619D01*
X119038666Y-86828380D02*
X119705333Y-86828380D01*
X119276761Y-87828380D01*
X90765333Y-92432142D02*
X90717714Y-92479761D01*
X90574857Y-92527380D01*
X90479619Y-92527380D01*
X90336761Y-92479761D01*
X90241523Y-92384523D01*
X90193904Y-92289285D01*
X90146285Y-92098809D01*
X90146285Y-91955952D01*
X90193904Y-91765476D01*
X90241523Y-91670238D01*
X90336761Y-91575000D01*
X90479619Y-91527380D01*
X90574857Y-91527380D01*
X90717714Y-91575000D01*
X90765333Y-91622619D01*
X91622476Y-91527380D02*
X91432000Y-91527380D01*
X91336761Y-91575000D01*
X91289142Y-91622619D01*
X91193904Y-91765476D01*
X91146285Y-91955952D01*
X91146285Y-92336904D01*
X91193904Y-92432142D01*
X91241523Y-92479761D01*
X91336761Y-92527380D01*
X91527238Y-92527380D01*
X91622476Y-92479761D01*
X91670095Y-92432142D01*
X91717714Y-92336904D01*
X91717714Y-92098809D01*
X91670095Y-92003571D01*
X91622476Y-91955952D01*
X91527238Y-91908333D01*
X91336761Y-91908333D01*
X91241523Y-91955952D01*
X91193904Y-92003571D01*
X91146285Y-92098809D01*
X106684857Y-102414428D02*
X107027714Y-102414428D01*
X106856285Y-103014428D02*
X106856285Y-102414428D01*
X107227714Y-103014428D02*
X107227714Y-102414428D01*
X107456285Y-102414428D01*
X107513428Y-102443000D01*
X107542000Y-102471571D01*
X107570571Y-102528714D01*
X107570571Y-102614428D01*
X107542000Y-102671571D01*
X107513428Y-102700142D01*
X107456285Y-102728714D01*
X107227714Y-102728714D01*
X107799142Y-102471571D02*
X107827714Y-102443000D01*
X107884857Y-102414428D01*
X108027714Y-102414428D01*
X108084857Y-102443000D01*
X108113428Y-102471571D01*
X108142000Y-102528714D01*
X108142000Y-102585857D01*
X108113428Y-102671571D01*
X107770571Y-103014428D01*
X108142000Y-103014428D01*
X101092095Y-94829380D02*
X101092095Y-95638904D01*
X101139714Y-95734142D01*
X101187333Y-95781761D01*
X101282571Y-95829380D01*
X101473047Y-95829380D01*
X101568285Y-95781761D01*
X101615904Y-95734142D01*
X101663523Y-95638904D01*
X101663523Y-94829380D01*
X102663523Y-95829380D02*
X102092095Y-95829380D01*
X102377809Y-95829380D02*
X102377809Y-94829380D01*
X102282571Y-94972238D01*
X102187333Y-95067476D01*
X102092095Y-95115095D01*
X102736666Y-108258571D02*
X102403333Y-108258571D01*
X102403333Y-108782380D02*
X102403333Y-107782380D01*
X102879523Y-107782380D01*
X103212857Y-107877619D02*
X103260476Y-107830000D01*
X103355714Y-107782380D01*
X103593809Y-107782380D01*
X103689047Y-107830000D01*
X103736666Y-107877619D01*
X103784285Y-107972857D01*
X103784285Y-108068095D01*
X103736666Y-108210952D01*
X103165238Y-108782380D01*
X103784285Y-108782380D01*
X103759095Y-77811380D02*
X103759095Y-78620904D01*
X103806714Y-78716142D01*
X103854333Y-78763761D01*
X103949571Y-78811380D01*
X104140047Y-78811380D01*
X104235285Y-78763761D01*
X104282904Y-78716142D01*
X104330523Y-78620904D01*
X104330523Y-77811380D01*
X104759095Y-77906619D02*
X104806714Y-77859000D01*
X104901952Y-77811380D01*
X105140047Y-77811380D01*
X105235285Y-77859000D01*
X105282904Y-77906619D01*
X105330523Y-78001857D01*
X105330523Y-78097095D01*
X105282904Y-78239952D01*
X104711476Y-78811380D01*
X105330523Y-78811380D01*
X105287857Y-104827428D02*
X105630714Y-104827428D01*
X105459285Y-105427428D02*
X105459285Y-104827428D01*
X105830714Y-105427428D02*
X105830714Y-104827428D01*
X106059285Y-104827428D01*
X106116428Y-104856000D01*
X106145000Y-104884571D01*
X106173571Y-104941714D01*
X106173571Y-105027428D01*
X106145000Y-105084571D01*
X106116428Y-105113142D01*
X106059285Y-105141714D01*
X105830714Y-105141714D01*
X106373571Y-104827428D02*
X106745000Y-104827428D01*
X106545000Y-105056000D01*
X106630714Y-105056000D01*
X106687857Y-105084571D01*
X106716428Y-105113142D01*
X106745000Y-105170285D01*
X106745000Y-105313142D01*
X106716428Y-105370285D01*
X106687857Y-105398857D01*
X106630714Y-105427428D01*
X106459285Y-105427428D01*
X106402142Y-105398857D01*
X106373571Y-105370285D01*
D11*
X99113733Y-103630000D02*
X99406267Y-103630000D01*
X99113733Y-104650000D02*
X99406267Y-104650000D01*
X94748000Y-90474000D02*
X93418000Y-90474000D01*
X94748000Y-80194000D02*
X92088000Y-80194000D01*
X92088000Y-87874000D02*
X92088000Y-80194000D01*
X94748000Y-87874000D02*
X92088000Y-87874000D01*
X94748000Y-89144000D02*
X94748000Y-90474000D01*
X94748000Y-87874000D02*
X94748000Y-80194000D01*
X111197276Y-98312500D02*
X111706724Y-98312500D01*
X111197276Y-97267500D02*
X111706724Y-97267500D01*
X106878000Y-97936267D02*
X106878000Y-97643733D01*
X107898000Y-97936267D02*
X107898000Y-97643733D01*
X95464000Y-97868000D02*
X95914000Y-98318000D01*
X95464000Y-101268000D02*
X95914000Y-100818000D01*
X94164000Y-96818000D02*
X92164000Y-96818000D01*
X90864000Y-97868000D02*
X90414000Y-98318000D01*
X94164000Y-102318000D02*
X92164000Y-102318000D01*
X90864000Y-101268000D02*
X90414000Y-100818000D01*
X95914000Y-98318000D02*
X95914000Y-100818000D01*
X90414000Y-98318000D02*
X90414000Y-100818000D01*
X120530000Y-113665000D02*
G75*
G03*
X120530000Y-113665000I-950000J0D01*
G01*
X100210000Y-106680000D02*
G75*
G03*
X100210000Y-106680000I-950000J0D01*
G01*
X111706724Y-105678500D02*
X111197276Y-105678500D01*
X111706724Y-104633500D02*
X111197276Y-104633500D01*
X96850000Y-105030000D02*
X91450000Y-105030000D01*
X96850000Y-108330000D02*
X96850000Y-105030000D01*
X96850000Y-108330000D02*
X91450000Y-108330000D01*
X93818267Y-93470000D02*
X93525733Y-93470000D01*
X93818267Y-94490000D02*
X93525733Y-94490000D01*
X97990000Y-109360000D02*
X88590000Y-109360000D01*
X88590000Y-109360000D02*
X107390000Y-109360000D01*
X107390000Y-109360000D02*
X107390000Y-114160000D01*
X107390000Y-114160000D02*
X88590000Y-114160000D01*
X88590000Y-114160000D02*
X88590000Y-109360000D01*
X115401000Y-107664000D02*
X115401000Y-113316000D01*
X115161000Y-107435000D02*
X115161000Y-109450000D01*
X116001000Y-108456000D02*
X116001000Y-112524000D01*
X113921000Y-111530000D02*
X113921000Y-114295000D01*
X114961000Y-111530000D02*
X114961000Y-113710000D01*
X114321000Y-111530000D02*
X114321000Y-114117000D01*
X113281000Y-106496000D02*
X113281000Y-109450000D01*
X114681000Y-107072000D02*
X114681000Y-109450000D01*
X114241000Y-106824000D02*
X114241000Y-109450000D01*
X114401000Y-111530000D02*
X114401000Y-114074000D01*
X113000000Y-106448000D02*
X113000000Y-114532000D01*
X114281000Y-111530000D02*
X114281000Y-114137000D01*
X115041000Y-107334000D02*
X115041000Y-109450000D01*
X112920000Y-106438000D02*
X112920000Y-114542000D01*
X115361000Y-107623000D02*
X115361000Y-113357000D01*
X113241000Y-106488000D02*
X113241000Y-109450000D01*
X113881000Y-111530000D02*
X113881000Y-114311000D01*
X113361000Y-111530000D02*
X113361000Y-114466000D01*
X113401000Y-106523000D02*
X113401000Y-109450000D01*
X113761000Y-111530000D02*
X113761000Y-114353000D01*
X113040000Y-106453000D02*
X113040000Y-114527000D01*
X116401000Y-109392000D02*
X116401000Y-111588000D01*
X115761000Y-108090000D02*
X115761000Y-112890000D01*
X114801000Y-111530000D02*
X114801000Y-113828000D01*
X115161000Y-111530000D02*
X115161000Y-113545000D01*
X113681000Y-111530000D02*
X113681000Y-114379000D01*
X112720000Y-106419000D02*
X112720000Y-114561000D01*
X114801000Y-107152000D02*
X114801000Y-109450000D01*
X116161000Y-108759000D02*
X116161000Y-112221000D01*
X114681000Y-111530000D02*
X114681000Y-113908000D01*
X115601000Y-107886000D02*
X115601000Y-113094000D01*
X113561000Y-106565000D02*
X113561000Y-109450000D01*
X114241000Y-111530000D02*
X114241000Y-114156000D01*
X114161000Y-106786000D02*
X114161000Y-109450000D01*
X113080000Y-106460000D02*
X113080000Y-114520000D01*
X114321000Y-106863000D02*
X114321000Y-109450000D01*
X113481000Y-106543000D02*
X113481000Y-109450000D01*
X113601000Y-106576000D02*
X113601000Y-109450000D01*
X113201000Y-106480000D02*
X113201000Y-109450000D01*
X114481000Y-111530000D02*
X114481000Y-114030000D01*
X113281000Y-111530000D02*
X113281000Y-114484000D01*
X115721000Y-108036000D02*
X115721000Y-112944000D01*
X114121000Y-106768000D02*
X114121000Y-109450000D01*
X114441000Y-106928000D02*
X114441000Y-109450000D01*
X114601000Y-111530000D02*
X114601000Y-113959000D01*
X114041000Y-106733000D02*
X114041000Y-109450000D01*
X114881000Y-111530000D02*
X114881000Y-113770000D01*
X116441000Y-109542000D02*
X116441000Y-111438000D01*
X114841000Y-111530000D02*
X114841000Y-113799000D01*
X112440000Y-106410000D02*
X112440000Y-114570000D01*
X113321000Y-111530000D02*
X113321000Y-114475000D01*
X113721000Y-111530000D02*
X113721000Y-114367000D01*
X114561000Y-106997000D02*
X114561000Y-109450000D01*
X114001000Y-106716000D02*
X114001000Y-109450000D01*
X114921000Y-107240000D02*
X114921000Y-109450000D01*
X112520000Y-106410000D02*
X112520000Y-114570000D01*
X113561000Y-111530000D02*
X113561000Y-114415000D01*
X112480000Y-106410000D02*
X112480000Y-114570000D01*
X113481000Y-111530000D02*
X113481000Y-114437000D01*
X115081000Y-107366000D02*
X115081000Y-109450000D01*
X114761000Y-107125000D02*
X114761000Y-109450000D01*
X112760000Y-106422000D02*
X112760000Y-114558000D01*
X115201000Y-107471000D02*
X115201000Y-109450000D01*
X112560000Y-106411000D02*
X112560000Y-114569000D01*
X116281000Y-109037000D02*
X116281000Y-111943000D01*
X114641000Y-107046000D02*
X114641000Y-109450000D01*
X112840000Y-106429000D02*
X112840000Y-114551000D01*
X115961000Y-108388000D02*
X115961000Y-112592000D01*
X115881000Y-108262000D02*
X115881000Y-112718000D01*
X115201000Y-111530000D02*
X115201000Y-113509000D01*
X113881000Y-106669000D02*
X113881000Y-109450000D01*
X115921000Y-108324000D02*
X115921000Y-112656000D01*
X114961000Y-107270000D02*
X114961000Y-109450000D01*
X113801000Y-111530000D02*
X113801000Y-114340000D01*
X114561000Y-111530000D02*
X114561000Y-113983000D01*
X114041000Y-111530000D02*
X114041000Y-114247000D01*
X113521000Y-106554000D02*
X113521000Y-109450000D01*
X115001000Y-107301000D02*
X115001000Y-109450000D01*
X113321000Y-106505000D02*
X113321000Y-109450000D01*
X113201000Y-111530000D02*
X113201000Y-114500000D01*
X114841000Y-107181000D02*
X114841000Y-109450000D01*
X114281000Y-106843000D02*
X114281000Y-109450000D01*
X113241000Y-111530000D02*
X113241000Y-114492000D01*
X115521000Y-107793000D02*
X115521000Y-113187000D01*
X115441000Y-107706000D02*
X115441000Y-113274000D01*
X115561000Y-107839000D02*
X115561000Y-113141000D01*
X116521000Y-109957000D02*
X116521000Y-111023000D01*
X116481000Y-109722000D02*
X116481000Y-111258000D01*
X114401000Y-106906000D02*
X114401000Y-109450000D01*
X113801000Y-106640000D02*
X113801000Y-109450000D01*
X114641000Y-111530000D02*
X114641000Y-113934000D01*
X114881000Y-107210000D02*
X114881000Y-109450000D01*
X112960000Y-106442000D02*
X112960000Y-114538000D01*
X114001000Y-111530000D02*
X114001000Y-114264000D01*
X114201000Y-111530000D02*
X114201000Y-114176000D01*
X114921000Y-111530000D02*
X114921000Y-113740000D01*
X115681000Y-107985000D02*
X115681000Y-112995000D01*
X114721000Y-107098000D02*
X114721000Y-109450000D01*
X114481000Y-106950000D02*
X114481000Y-109450000D01*
X113961000Y-106700000D02*
X113961000Y-109450000D01*
X112640000Y-106414000D02*
X112640000Y-114566000D01*
X116121000Y-108677000D02*
X116121000Y-112303000D01*
X115241000Y-107507000D02*
X115241000Y-113473000D01*
X115121000Y-107400000D02*
X115121000Y-109450000D01*
X115481000Y-107749000D02*
X115481000Y-113231000D01*
X115321000Y-107583000D02*
X115321000Y-113397000D01*
X108430302Y-107775000D02*
X108430302Y-108575000D01*
X113961000Y-111530000D02*
X113961000Y-114280000D01*
X114121000Y-111530000D02*
X114121000Y-114212000D01*
X114081000Y-106750000D02*
X114081000Y-109450000D01*
X113161000Y-106473000D02*
X113161000Y-109450000D01*
X113841000Y-106655000D02*
X113841000Y-109450000D01*
X113761000Y-106627000D02*
X113761000Y-109450000D01*
X115121000Y-111530000D02*
X115121000Y-113580000D01*
X113641000Y-111530000D02*
X113641000Y-114392000D01*
X113601000Y-111530000D02*
X113601000Y-114404000D01*
X114601000Y-107021000D02*
X114601000Y-109450000D01*
X115281000Y-107545000D02*
X115281000Y-113435000D01*
X115001000Y-111530000D02*
X115001000Y-113679000D01*
X115841000Y-108203000D02*
X115841000Y-112777000D01*
X112880000Y-106433000D02*
X112880000Y-114547000D01*
X114361000Y-106884000D02*
X114361000Y-109450000D01*
X116081000Y-108600000D02*
X116081000Y-112380000D01*
X113641000Y-106588000D02*
X113641000Y-109450000D01*
X116041000Y-108526000D02*
X116041000Y-112454000D01*
X114161000Y-111530000D02*
X114161000Y-114194000D01*
X113521000Y-111530000D02*
X113521000Y-114426000D01*
X115801000Y-108145000D02*
X115801000Y-112835000D01*
X108030302Y-108175000D02*
X108830302Y-108175000D01*
X113441000Y-106533000D02*
X113441000Y-109450000D01*
X113161000Y-111530000D02*
X113161000Y-114507000D01*
X115081000Y-111530000D02*
X115081000Y-113614000D01*
X113681000Y-106601000D02*
X113681000Y-109450000D01*
X114361000Y-111530000D02*
X114361000Y-114096000D01*
X116321000Y-109144000D02*
X116321000Y-111836000D01*
X115641000Y-107934000D02*
X115641000Y-113046000D01*
X113441000Y-111530000D02*
X113441000Y-114447000D01*
X113721000Y-106613000D02*
X113721000Y-109450000D01*
X113841000Y-111530000D02*
X113841000Y-114325000D01*
X114761000Y-111530000D02*
X114761000Y-113855000D01*
X112680000Y-106416000D02*
X112680000Y-114564000D01*
X113120000Y-106466000D02*
X113120000Y-114514000D01*
X113921000Y-106685000D02*
X113921000Y-109450000D01*
X113361000Y-106514000D02*
X113361000Y-109450000D01*
X114721000Y-111530000D02*
X114721000Y-113882000D01*
X116201000Y-108845000D02*
X116201000Y-112135000D01*
X114521000Y-106973000D02*
X114521000Y-109450000D01*
X114441000Y-111530000D02*
X114441000Y-114052000D01*
X114201000Y-106804000D02*
X114201000Y-109450000D01*
X114081000Y-111530000D02*
X114081000Y-114230000D01*
X116241000Y-108938000D02*
X116241000Y-112042000D01*
X116361000Y-109261000D02*
X116361000Y-111719000D01*
X112800000Y-106425000D02*
X112800000Y-114555000D01*
X112600000Y-106413000D02*
X112600000Y-114567000D01*
X113401000Y-111530000D02*
X113401000Y-114457000D01*
X114521000Y-111530000D02*
X114521000Y-114007000D01*
X115041000Y-111530000D02*
X115041000Y-113646000D01*
X116560000Y-110490000D02*
G75*
G03*
X116560000Y-110490000I-4120000J0D01*
G01*
X89100000Y-123190000D02*
X99260000Y-123190000D01*
X99260000Y-123190000D02*
X99260000Y-115570000D01*
X99260000Y-115570000D02*
X89100000Y-115570000D01*
X89100000Y-115570000D02*
X89100000Y-123190000D01*
X99260000Y-121920000D02*
X89100000Y-121920000D01*
X115262724Y-99328500D02*
X114753276Y-99328500D01*
X115262724Y-98283500D02*
X114753276Y-98283500D01*
X118250000Y-102245000D02*
X118250000Y-100915000D01*
X118250000Y-103515000D02*
X120910000Y-103515000D01*
X118250000Y-100915000D02*
X119580000Y-100915000D01*
X120910000Y-103515000D02*
X120910000Y-111195000D01*
X118250000Y-103515000D02*
X118250000Y-111195000D01*
X118250000Y-111195000D02*
X120910000Y-111195000D01*
X116024724Y-104887500D02*
X115515276Y-104887500D01*
X116024724Y-105932500D02*
X115515276Y-105932500D01*
X113012000Y-101981000D02*
X113012000Y-102781000D01*
X109892000Y-101981000D02*
X109892000Y-102781000D01*
X113012000Y-101981000D02*
X113012000Y-100181000D01*
X109892000Y-101981000D02*
X109892000Y-101181000D01*
X115877733Y-87886000D02*
X116170267Y-87886000D01*
X115877733Y-86866000D02*
X116170267Y-86866000D01*
X93818267Y-92585000D02*
X93525733Y-92585000D01*
X93818267Y-91565000D02*
X93525733Y-91565000D01*
X108846000Y-101092000D02*
G75*
G03*
X108846000Y-101092000I-950000J0D01*
G01*
X117100000Y-80209000D02*
X114440000Y-80209000D01*
X114440000Y-82809000D02*
X114440000Y-80209000D01*
X117100000Y-84079000D02*
X117100000Y-85409000D01*
X117100000Y-82809000D02*
X117100000Y-80209000D01*
X117100000Y-82809000D02*
X114440000Y-82809000D01*
X117100000Y-85409000D02*
X115770000Y-85409000D01*
X114210000Y-102362000D02*
X114210000Y-101562000D01*
X117330000Y-102362000D02*
X117330000Y-100562000D01*
X114210000Y-102362000D02*
X114210000Y-103162000D01*
X117330000Y-102362000D02*
X117330000Y-103162000D01*
X99950000Y-103105000D02*
X103710000Y-103105000D01*
X103710000Y-96285000D02*
X103710000Y-97545000D01*
X103710000Y-103105000D02*
X103710000Y-101845000D01*
X97700000Y-96285000D02*
X103710000Y-96285000D01*
X103331252Y-107390000D02*
X102808748Y-107390000D01*
X103331252Y-105970000D02*
X102808748Y-105970000D01*
X117310000Y-90722000D02*
X119310000Y-90722000D01*
X115560000Y-94722000D02*
X115560000Y-92222000D01*
X116010000Y-91772000D02*
X115560000Y-92222000D01*
X117310000Y-96222000D02*
X119310000Y-96222000D01*
X116010000Y-95172000D02*
X115560000Y-94722000D01*
X120610000Y-95172000D02*
X121060000Y-94722000D01*
X121060000Y-94722000D02*
X121060000Y-92222000D01*
X120610000Y-91772000D02*
X121060000Y-92222000D01*
X120915302Y-121920000D02*
X100595302Y-121920000D01*
X100595302Y-115570000D02*
X120915302Y-115570000D01*
X100595302Y-115570000D02*
X100595302Y-123190000D01*
X120915302Y-123190000D02*
X120915302Y-115570000D01*
X100595302Y-123190000D02*
X120915302Y-123190000D01*
X96474000Y-93712000D02*
X96474000Y-93092000D01*
X96474000Y-77092000D02*
X95864000Y-77092000D01*
X96474000Y-69472000D02*
X112714000Y-69472000D01*
X112714000Y-69472000D02*
X112714000Y-77092000D01*
X112714000Y-93092000D02*
X112714000Y-93712000D01*
X112714000Y-93712000D02*
X110594000Y-93712000D01*
X98594000Y-93712000D02*
X96474000Y-93712000D01*
X96474000Y-77092000D02*
X96474000Y-69472000D01*
X107830000Y-106680000D02*
G75*
G03*
X107830000Y-106680000I-950000J0D01*
G01*
%LPC*%
D12*
X98397500Y-104140000D03*
X100122500Y-104140000D03*
D13*
X93418000Y-89144000D03*
D14*
X93418000Y-86604000D03*
X93418000Y-84064000D03*
X93418000Y-81524000D03*
D15*
X110539500Y-97790000D03*
X112364500Y-97790000D03*
D16*
X107388000Y-98652500D03*
X107388000Y-96927500D03*
D17*
X95064000Y-96418000D03*
X95064000Y-102718000D03*
X91264000Y-96418000D03*
X91264000Y-102718000D03*
D18*
X119580000Y-113665000D03*
X99260000Y-106680000D03*
D19*
X112364500Y-105156000D03*
X110539500Y-105156000D03*
D20*
X95450000Y-106680000D03*
X91450000Y-106680000D03*
D21*
X94534500Y-93980000D03*
X92809500Y-93980000D03*
D22*
X95840000Y-111760000D03*
X92040000Y-111760000D03*
X103940000Y-111760000D03*
X100140000Y-111760000D03*
D23*
X110690000Y-110490000D03*
D24*
X114190000Y-110490000D03*
D25*
X91640000Y-119380000D03*
D26*
X96720000Y-119380000D03*
D19*
X115920500Y-98806000D03*
X114095500Y-98806000D03*
D13*
X119580000Y-102245000D03*
D14*
X119580000Y-104785000D03*
X119580000Y-107325000D03*
X119580000Y-109865000D03*
D27*
X119197056Y-75197056D03*
X117500000Y-71100000D03*
X119900000Y-73500000D03*
X117500000Y-75900000D03*
D28*
X117500000Y-73500000D03*
D27*
X115802944Y-71802944D03*
X115802944Y-75197056D03*
X119197056Y-71802944D03*
X115100000Y-73500000D03*
D19*
X116682500Y-105410000D03*
X114857500Y-105410000D03*
D29*
X112402000Y-100843500D03*
X111452000Y-100843500D03*
X110502000Y-100843500D03*
X110502000Y-103118500D03*
X111452000Y-103118500D03*
X112402000Y-103118500D03*
D12*
X115161500Y-87376000D03*
X116886500Y-87376000D03*
D21*
X94534500Y-92075000D03*
X92809500Y-92075000D03*
D18*
X107896000Y-101092000D03*
D13*
X115770000Y-84079000D03*
D14*
X115770000Y-81539000D03*
D27*
X92500000Y-71100000D03*
X90802944Y-71802944D03*
X94197056Y-71802944D03*
D28*
X92500000Y-73500000D03*
D27*
X94197056Y-75197056D03*
X94900000Y-73500000D03*
X92500000Y-75900000D03*
X90100000Y-73500000D03*
X90802944Y-75197056D03*
D29*
X116720000Y-101224500D03*
X115770000Y-101224500D03*
X114820000Y-101224500D03*
X114820000Y-103499500D03*
X115770000Y-103499500D03*
X116720000Y-103499500D03*
D30*
X98650000Y-97395000D03*
X98650000Y-99695000D03*
D31*
X104950000Y-99695000D03*
D30*
X98650000Y-101995000D03*
D32*
X104095000Y-106680000D03*
X102045000Y-106680000D03*
D17*
X116410000Y-90322000D03*
X116410000Y-96622000D03*
X120210000Y-96622000D03*
X120210000Y-90322000D03*
D25*
X103135302Y-119380000D03*
D26*
X108215302Y-119380000D03*
X113295302Y-119380000D03*
X118375302Y-119380000D03*
D33*
X96994000Y-78092000D03*
X96994000Y-80092000D03*
X96994000Y-82092000D03*
X96994000Y-84092000D03*
X96994000Y-86092000D03*
X96994000Y-88092000D03*
X96994000Y-90092000D03*
X96994000Y-92092000D03*
D34*
X99594000Y-93592000D03*
X101594000Y-93592000D03*
X103594000Y-93592000D03*
X105594000Y-93592000D03*
X107594000Y-93592000D03*
X109594000Y-93592000D03*
D33*
X112194000Y-92092000D03*
X112194000Y-90092000D03*
X112194000Y-88092000D03*
X112194000Y-86092000D03*
X112194000Y-84092000D03*
X112194000Y-82092000D03*
X112194000Y-80092000D03*
X112194000Y-78092000D03*
D18*
X106880000Y-106680000D03*
M02*
