%TF.GenerationSoftware,KiCad,Pcbnew,(6.0.5)*%
%TF.CreationDate,2023-06-01T20:28:18+03:00*%
%TF.ProjectId,led-controller,6c65642d-636f-46e7-9472-6f6c6c65722e,rev?*%
%TF.SameCoordinates,Original*%
%TF.FileFunction,Copper,L2,Bot*%
%TF.FilePolarity,Positive*%
%FSLAX46Y46*%
G04 Gerber Fmt 4.6, Leading zero omitted, Abs format (unit mm)*
G04 Created by KiCad (PCBNEW (6.0.5)) date 2023-06-01 20:28:18*
%MOMM*%
%LPD*%
G01*
G04 APERTURE LIST*
G04 Aperture macros list*
%AMRoundRect*
0 Rectangle with rounded corners*
0 $1 Rounding radius*
0 $2 $3 $4 $5 $6 $7 $8 $9 X,Y pos of 4 corners*
0 Add a 4 corners polygon primitive as box body*
4,1,4,$2,$3,$4,$5,$6,$7,$8,$9,$2,$3,0*
0 Add four circle primitives for the rounded corners*
1,1,$1+$1,$2,$3*
1,1,$1+$1,$4,$5*
1,1,$1+$1,$6,$7*
1,1,$1+$1,$8,$9*
0 Add four rect primitives between the rounded corners*
20,1,$1+$1,$2,$3,$4,$5,0*
20,1,$1+$1,$4,$5,$6,$7,0*
20,1,$1+$1,$6,$7,$8,$9,0*
20,1,$1+$1,$8,$9,$2,$3,0*%
G04 Aperture macros list end*
%TA.AperFunction,ComponentPad*%
%ADD10R,1.700000X1.700000*%
%TD*%
%TA.AperFunction,ComponentPad*%
%ADD11O,1.700000X1.700000*%
%TD*%
%TA.AperFunction,ComponentPad*%
%ADD12O,3.000000X3.500000*%
%TD*%
%TA.AperFunction,ComponentPad*%
%ADD13R,1.600000X1.600000*%
%TD*%
%TA.AperFunction,ComponentPad*%
%ADD14C,1.600000*%
%TD*%
%TA.AperFunction,ComponentPad*%
%ADD15R,3.000000X3.000000*%
%TD*%
%TA.AperFunction,ComponentPad*%
%ADD16C,3.000000*%
%TD*%
%TA.AperFunction,ComponentPad*%
%ADD17C,0.800000*%
%TD*%
%TA.AperFunction,ComponentPad*%
%ADD18C,6.400000*%
%TD*%
%TA.AperFunction,SMDPad,CuDef*%
%ADD19RoundRect,0.237500X-0.237500X0.250000X-0.237500X-0.250000X0.237500X-0.250000X0.237500X0.250000X0*%
%TD*%
%TA.AperFunction,SMDPad,CuDef*%
%ADD20RoundRect,0.237500X-0.250000X-0.237500X0.250000X-0.237500X0.250000X0.237500X-0.250000X0.237500X0*%
%TD*%
%TA.AperFunction,SMDPad,CuDef*%
%ADD21RoundRect,0.237500X0.250000X0.237500X-0.250000X0.237500X-0.250000X-0.237500X0.250000X-0.237500X0*%
%TD*%
%TA.AperFunction,SMDPad,CuDef*%
%ADD22RoundRect,0.237500X-0.300000X-0.237500X0.300000X-0.237500X0.300000X0.237500X-0.300000X0.237500X0*%
%TD*%
%TA.AperFunction,ViaPad*%
%ADD23C,0.800000*%
%TD*%
%TA.AperFunction,Conductor*%
%ADD24C,0.500000*%
%TD*%
%TA.AperFunction,Conductor*%
%ADD25C,0.250000*%
%TD*%
G04 APERTURE END LIST*
D10*
X93418000Y-89144000D03*
D11*
X93418000Y-86604000D03*
X93418000Y-84064000D03*
X93418000Y-81524000D03*
D12*
X95840000Y-111760000D03*
X92040000Y-111760000D03*
X103940000Y-111760000D03*
X100140000Y-111760000D03*
D13*
X110690000Y-110490000D03*
D14*
X114190000Y-110490000D03*
D15*
X91640000Y-119380000D03*
D16*
X96720000Y-119380000D03*
D10*
X119580000Y-102245000D03*
D11*
X119580000Y-104785000D03*
X119580000Y-107325000D03*
X119580000Y-109865000D03*
D17*
X119197056Y-75197056D03*
X117500000Y-71100000D03*
X119900000Y-73500000D03*
X117500000Y-75900000D03*
D18*
X117500000Y-73500000D03*
D17*
X115802944Y-71802944D03*
X115802944Y-75197056D03*
X119197056Y-71802944D03*
X115100000Y-73500000D03*
D10*
X115770000Y-84079000D03*
D11*
X115770000Y-81539000D03*
D17*
X92500000Y-71100000D03*
X90802944Y-71802944D03*
X94197056Y-71802944D03*
D18*
X92500000Y-73500000D03*
D17*
X94197056Y-75197056D03*
X94900000Y-73500000D03*
X92500000Y-75900000D03*
X90100000Y-73500000D03*
X90802944Y-75197056D03*
D15*
X103135302Y-119380000D03*
D16*
X108215302Y-119380000D03*
X113295302Y-119380000D03*
X118375302Y-119380000D03*
D19*
X108966000Y-89003500D03*
X108966000Y-90828500D03*
D20*
X99617500Y-78232000D03*
X101442500Y-78232000D03*
X100633500Y-82042000D03*
X102458500Y-82042000D03*
D21*
X109570500Y-86106000D03*
X107745500Y-86106000D03*
D22*
X92402000Y-99568000D03*
X94127000Y-99568000D03*
D23*
X99060000Y-95758000D03*
X93418000Y-95504000D03*
X90424000Y-105029000D03*
X100584000Y-97790000D03*
X120142000Y-93726000D03*
X100076000Y-95758000D03*
X90424000Y-108331000D03*
X101473000Y-104140000D03*
X98044000Y-95758000D03*
X112268000Y-93218000D03*
X92456000Y-108331000D03*
X91440000Y-105029000D03*
X111515000Y-99314000D03*
X92456000Y-105029000D03*
X91440000Y-108331000D03*
X117460500Y-88646000D03*
X110236000Y-91948000D03*
X100584000Y-96774000D03*
X116532000Y-99822000D03*
X107315000Y-95631000D03*
X109166000Y-103886000D03*
X117548000Y-103886000D03*
X113484000Y-103886000D03*
X104086000Y-85598000D03*
X91386000Y-99568000D03*
X91386000Y-94742000D03*
X95082000Y-78092000D03*
X114639500Y-86092000D03*
X118056000Y-99060000D03*
X117856000Y-79248000D03*
X115316000Y-79248000D03*
X99260000Y-82042000D03*
X110236000Y-89408000D03*
D24*
X113484000Y-103886000D02*
X117548000Y-103886000D01*
X113484000Y-103886000D02*
X109166000Y-103886000D01*
D25*
X101442500Y-78232000D02*
X104086000Y-80875500D01*
X104086000Y-80875500D02*
X104086000Y-83058000D01*
X104594000Y-86106000D02*
X104086000Y-85598000D01*
X107745500Y-86106000D02*
X104594000Y-86106000D01*
X104086000Y-83058000D02*
X104086000Y-85598000D01*
X104086000Y-83058000D02*
X103070000Y-82042000D01*
X103070000Y-82042000D02*
X102458500Y-82042000D01*
D24*
X91386000Y-99568000D02*
X92402000Y-99568000D01*
D25*
X99617500Y-78232000D02*
X95222000Y-78232000D01*
D24*
X91386000Y-98552000D02*
X91386000Y-94742000D01*
D25*
X95222000Y-78232000D02*
X95082000Y-78092000D01*
D24*
X92402000Y-99568000D02*
X91386000Y-98552000D01*
D25*
X114625500Y-86106000D02*
X114639500Y-86092000D01*
X109570500Y-86106000D02*
X114625500Y-86106000D01*
X119580000Y-104785000D02*
X118056000Y-103261000D01*
X118056000Y-103261000D02*
X118056000Y-99060000D01*
X115316000Y-79248000D02*
X117856000Y-79248000D01*
X99260000Y-82042000D02*
X100379500Y-82042000D01*
X109831500Y-89003500D02*
X110236000Y-89408000D01*
X108966000Y-89003500D02*
X109831500Y-89003500D01*
%TA.AperFunction,Conductor*%
G36*
X115727076Y-70028502D02*
G01*
X115773569Y-70082158D01*
X115783673Y-70152432D01*
X115754179Y-70217012D01*
X115716158Y-70246767D01*
X115646147Y-70282439D01*
X115646140Y-70282443D01*
X115643206Y-70283938D01*
X115317207Y-70495643D01*
X115015124Y-70740266D01*
X114740266Y-71015124D01*
X114495643Y-71317207D01*
X114283938Y-71643206D01*
X114282443Y-71646140D01*
X114282439Y-71646147D01*
X114212366Y-71783673D01*
X114107468Y-71989547D01*
X113968167Y-72352438D01*
X113867562Y-72727901D01*
X113806754Y-73111824D01*
X113786411Y-73500000D01*
X113806754Y-73888176D01*
X113867562Y-74272099D01*
X113968167Y-74647562D01*
X114107468Y-75010453D01*
X114108966Y-75013393D01*
X114220468Y-75232227D01*
X114283938Y-75356794D01*
X114495643Y-75682793D01*
X114740266Y-75984876D01*
X115015124Y-76259734D01*
X115317207Y-76504357D01*
X115643205Y-76716062D01*
X115646139Y-76717557D01*
X115646146Y-76717561D01*
X115961717Y-76878352D01*
X115989547Y-76892532D01*
X116100967Y-76935302D01*
X116329472Y-77023017D01*
X116352438Y-77031833D01*
X116727901Y-77132438D01*
X116918480Y-77162623D01*
X117108576Y-77192732D01*
X117108584Y-77192733D01*
X117111824Y-77193246D01*
X117500000Y-77213589D01*
X117888176Y-77193246D01*
X117891416Y-77192733D01*
X117891424Y-77192732D01*
X118081520Y-77162623D01*
X118272099Y-77132438D01*
X118647562Y-77031833D01*
X118670529Y-77023017D01*
X118899033Y-76935302D01*
X119010453Y-76892532D01*
X119038283Y-76878352D01*
X119353854Y-76717561D01*
X119353861Y-76717557D01*
X119356795Y-76716062D01*
X119682793Y-76504357D01*
X119984876Y-76259734D01*
X120259734Y-75984876D01*
X120504357Y-75682793D01*
X120716062Y-75356794D01*
X120753233Y-75283842D01*
X120801981Y-75232227D01*
X120870896Y-75215161D01*
X120938098Y-75238062D01*
X120982250Y-75293659D01*
X120991500Y-75341045D01*
X120991500Y-100928420D01*
X120971498Y-100996541D01*
X120917842Y-101043034D01*
X120847568Y-101053138D01*
X120789935Y-101029246D01*
X120683892Y-100949771D01*
X120683890Y-100949770D01*
X120676705Y-100944385D01*
X120540316Y-100893255D01*
X120478134Y-100886500D01*
X118815500Y-100886500D01*
X118747379Y-100866498D01*
X118700886Y-100812842D01*
X118689500Y-100760500D01*
X118689500Y-99762524D01*
X118709502Y-99694403D01*
X118721858Y-99678221D01*
X118795040Y-99596944D01*
X118890527Y-99431556D01*
X118949542Y-99249928D01*
X118969504Y-99060000D01*
X118949542Y-98870072D01*
X118890527Y-98688444D01*
X118795040Y-98523056D01*
X118667253Y-98381134D01*
X118512752Y-98268882D01*
X118506724Y-98266198D01*
X118506722Y-98266197D01*
X118344319Y-98193891D01*
X118344318Y-98193891D01*
X118338288Y-98191206D01*
X118244888Y-98171353D01*
X118157944Y-98152872D01*
X118157939Y-98152872D01*
X118151487Y-98151500D01*
X117960513Y-98151500D01*
X117954061Y-98152872D01*
X117954056Y-98152872D01*
X117867112Y-98171353D01*
X117773712Y-98191206D01*
X117767682Y-98193891D01*
X117767681Y-98193891D01*
X117605278Y-98266197D01*
X117605276Y-98266198D01*
X117599248Y-98268882D01*
X117444747Y-98381134D01*
X117316960Y-98523056D01*
X117221473Y-98688444D01*
X117162458Y-98870072D01*
X117142496Y-99060000D01*
X117162458Y-99249928D01*
X117221473Y-99431556D01*
X117316960Y-99596944D01*
X117390137Y-99678215D01*
X117420853Y-99742221D01*
X117422500Y-99762524D01*
X117422500Y-102881847D01*
X117402498Y-102949968D01*
X117348842Y-102996461D01*
X117322698Y-103005093D01*
X117265712Y-103017206D01*
X117197878Y-103047407D01*
X117097278Y-103092197D01*
X117097276Y-103092198D01*
X117091248Y-103094882D01*
X117085909Y-103098761D01*
X117085902Y-103098765D01*
X117079472Y-103103437D01*
X117005413Y-103127500D01*
X114026587Y-103127500D01*
X113952528Y-103103437D01*
X113946098Y-103098765D01*
X113946091Y-103098761D01*
X113940752Y-103094882D01*
X113934724Y-103092198D01*
X113934722Y-103092197D01*
X113772319Y-103019891D01*
X113772316Y-103019890D01*
X113766288Y-103017206D01*
X113668691Y-102996461D01*
X113585944Y-102978872D01*
X113585939Y-102978872D01*
X113579487Y-102977500D01*
X113388513Y-102977500D01*
X113382061Y-102978872D01*
X113382056Y-102978872D01*
X113299309Y-102996461D01*
X113201712Y-103017206D01*
X113195684Y-103019890D01*
X113195681Y-103019891D01*
X113033278Y-103092197D01*
X113033276Y-103092198D01*
X113027248Y-103094882D01*
X113021909Y-103098761D01*
X113021902Y-103098765D01*
X113015472Y-103103437D01*
X112941413Y-103127500D01*
X109708587Y-103127500D01*
X109634528Y-103103437D01*
X109628098Y-103098765D01*
X109628091Y-103098761D01*
X109622752Y-103094882D01*
X109616724Y-103092198D01*
X109616722Y-103092197D01*
X109454319Y-103019891D01*
X109454316Y-103019890D01*
X109448288Y-103017206D01*
X109350691Y-102996461D01*
X109267944Y-102978872D01*
X109267939Y-102978872D01*
X109261487Y-102977500D01*
X109070513Y-102977500D01*
X109064061Y-102978872D01*
X109064056Y-102978872D01*
X108981309Y-102996461D01*
X108883712Y-103017206D01*
X108877684Y-103019890D01*
X108877681Y-103019891D01*
X108715278Y-103092197D01*
X108715276Y-103092198D01*
X108709248Y-103094882D01*
X108703907Y-103098762D01*
X108703906Y-103098763D01*
X108697473Y-103103437D01*
X108554747Y-103207134D01*
X108426960Y-103349056D01*
X108331473Y-103514444D01*
X108272458Y-103696072D01*
X108252496Y-103886000D01*
X108272458Y-104075928D01*
X108331473Y-104257556D01*
X108426960Y-104422944D01*
X108431378Y-104427851D01*
X108431379Y-104427852D01*
X108522966Y-104529570D01*
X108554747Y-104564866D01*
X108653843Y-104636864D01*
X108703904Y-104673235D01*
X108709248Y-104677118D01*
X108715276Y-104679802D01*
X108715278Y-104679803D01*
X108876751Y-104751695D01*
X108883712Y-104754794D01*
X108977112Y-104774647D01*
X109064056Y-104793128D01*
X109064061Y-104793128D01*
X109070513Y-104794500D01*
X109261487Y-104794500D01*
X109267939Y-104793128D01*
X109267944Y-104793128D01*
X109354888Y-104774647D01*
X109448288Y-104754794D01*
X109455249Y-104751695D01*
X109616722Y-104679803D01*
X109616724Y-104679802D01*
X109622752Y-104677118D01*
X109628091Y-104673239D01*
X109628098Y-104673235D01*
X109634528Y-104668563D01*
X109708587Y-104644500D01*
X112941413Y-104644500D01*
X113015472Y-104668563D01*
X113021902Y-104673235D01*
X113021909Y-104673239D01*
X113027248Y-104677118D01*
X113033276Y-104679802D01*
X113033278Y-104679803D01*
X113194751Y-104751695D01*
X113201712Y-104754794D01*
X113295112Y-104774647D01*
X113382056Y-104793128D01*
X113382061Y-104793128D01*
X113388513Y-104794500D01*
X113579487Y-104794500D01*
X113585939Y-104793128D01*
X113585944Y-104793128D01*
X113672888Y-104774647D01*
X113766288Y-104754794D01*
X113773249Y-104751695D01*
X113934722Y-104679803D01*
X113934724Y-104679802D01*
X113940752Y-104677118D01*
X113946091Y-104673239D01*
X113946098Y-104673235D01*
X113952528Y-104668563D01*
X114026587Y-104644500D01*
X117005413Y-104644500D01*
X117079472Y-104668563D01*
X117085902Y-104673235D01*
X117085909Y-104673239D01*
X117091248Y-104677118D01*
X117097276Y-104679802D01*
X117097278Y-104679803D01*
X117258751Y-104751695D01*
X117265712Y-104754794D01*
X117359112Y-104774647D01*
X117446056Y-104793128D01*
X117446061Y-104793128D01*
X117452513Y-104794500D01*
X117643487Y-104794500D01*
X117649939Y-104793128D01*
X117649944Y-104793128D01*
X117736888Y-104774647D01*
X117830288Y-104754794D01*
X117837249Y-104751695D01*
X117998722Y-104679803D01*
X117998724Y-104679802D01*
X118004752Y-104677118D01*
X118010097Y-104673235D01*
X118010367Y-104673039D01*
X118018002Y-104667491D01*
X118084867Y-104643632D01*
X118154019Y-104659710D01*
X118203501Y-104710623D01*
X118217855Y-104762173D01*
X118230110Y-104974715D01*
X118231247Y-104979761D01*
X118231248Y-104979767D01*
X118252275Y-105073069D01*
X118279222Y-105192639D01*
X118363266Y-105399616D01*
X118479987Y-105590088D01*
X118626250Y-105758938D01*
X118798126Y-105901632D01*
X118868595Y-105942811D01*
X118871445Y-105944476D01*
X118920169Y-105996114D01*
X118933240Y-106065897D01*
X118906509Y-106131669D01*
X118866055Y-106165027D01*
X118853607Y-106171507D01*
X118849474Y-106174610D01*
X118849471Y-106174612D01*
X118825247Y-106192800D01*
X118674965Y-106305635D01*
X118520629Y-106467138D01*
X118394743Y-106651680D01*
X118300688Y-106854305D01*
X118240989Y-107069570D01*
X118217251Y-107291695D01*
X118230110Y-107514715D01*
X118231247Y-107519761D01*
X118231248Y-107519767D01*
X118252275Y-107613069D01*
X118279222Y-107732639D01*
X118363266Y-107939616D01*
X118479987Y-108130088D01*
X118626250Y-108298938D01*
X118798126Y-108441632D01*
X118871955Y-108484774D01*
X118920679Y-108536412D01*
X118933750Y-108606195D01*
X118907019Y-108671967D01*
X118866562Y-108705327D01*
X118858457Y-108709546D01*
X118849738Y-108715036D01*
X118679433Y-108842905D01*
X118671726Y-108849748D01*
X118524590Y-109003717D01*
X118518104Y-109011727D01*
X118466051Y-109088034D01*
X118461839Y-109101046D01*
X118470262Y-109103000D01*
X120216000Y-109103000D01*
X120284121Y-109123002D01*
X120330614Y-109176658D01*
X120342000Y-109229000D01*
X120342000Y-110971512D01*
X120345751Y-110984285D01*
X120354284Y-110980865D01*
X120455328Y-110908792D01*
X120463200Y-110902139D01*
X120614052Y-110751812D01*
X120620730Y-110743965D01*
X120745003Y-110571020D01*
X120750312Y-110562185D01*
X120752542Y-110557673D01*
X120800655Y-110505465D01*
X120869355Y-110487557D01*
X120936832Y-110509634D01*
X120981662Y-110564687D01*
X120991500Y-110613498D01*
X120991500Y-125124535D01*
X120968260Y-125197448D01*
X120849591Y-125364694D01*
X120840782Y-125375740D01*
X120626035Y-125616043D01*
X120616043Y-125626035D01*
X120375740Y-125840782D01*
X120364694Y-125849591D01*
X120268012Y-125918191D01*
X120197447Y-125968260D01*
X120124535Y-125991500D01*
X89875465Y-125991500D01*
X89802553Y-125968260D01*
X89731988Y-125918191D01*
X89635306Y-125849591D01*
X89624260Y-125840782D01*
X89383957Y-125626035D01*
X89373965Y-125616043D01*
X89159218Y-125375740D01*
X89150409Y-125364694D01*
X89031740Y-125197448D01*
X89008500Y-125124535D01*
X89008500Y-120924669D01*
X89632001Y-120924669D01*
X89632371Y-120931490D01*
X89637895Y-120982352D01*
X89641521Y-120997604D01*
X89686676Y-121118054D01*
X89695214Y-121133649D01*
X89771715Y-121235724D01*
X89784276Y-121248285D01*
X89886351Y-121324786D01*
X89901946Y-121333324D01*
X90022394Y-121378478D01*
X90037649Y-121382105D01*
X90088514Y-121387631D01*
X90095328Y-121388000D01*
X90859885Y-121388000D01*
X90875124Y-121383525D01*
X90876329Y-121382135D01*
X90878000Y-121374452D01*
X90878000Y-121369884D01*
X92402000Y-121369884D01*
X92406475Y-121385123D01*
X92407865Y-121386328D01*
X92415548Y-121387999D01*
X93184669Y-121387999D01*
X93191490Y-121387629D01*
X93242352Y-121382105D01*
X93257604Y-121378479D01*
X93378054Y-121333324D01*
X93393649Y-121324786D01*
X93495724Y-121248285D01*
X93508285Y-121235724D01*
X93584786Y-121133649D01*
X93593324Y-121118054D01*
X93638478Y-120997606D01*
X93642105Y-120982351D01*
X93647631Y-120931486D01*
X93648000Y-120924672D01*
X93648000Y-120160115D01*
X93643525Y-120144876D01*
X93642135Y-120143671D01*
X93634452Y-120142000D01*
X92420115Y-120142000D01*
X92404876Y-120146475D01*
X92403671Y-120147865D01*
X92402000Y-120155548D01*
X92402000Y-121369884D01*
X90878000Y-121369884D01*
X90878000Y-120160115D01*
X90873525Y-120144876D01*
X90872135Y-120143671D01*
X90864452Y-120142000D01*
X89650116Y-120142000D01*
X89634877Y-120146475D01*
X89633672Y-120147865D01*
X89632001Y-120155548D01*
X89632001Y-120924669D01*
X89008500Y-120924669D01*
X89008500Y-119358918D01*
X94706917Y-119358918D01*
X94722682Y-119632320D01*
X94723507Y-119636525D01*
X94723508Y-119636533D01*
X94734111Y-119690577D01*
X94775405Y-119901053D01*
X94776792Y-119905103D01*
X94776793Y-119905108D01*
X94859432Y-120146475D01*
X94864112Y-120160144D01*
X94987160Y-120404799D01*
X94989586Y-120408328D01*
X94989589Y-120408334D01*
X95032276Y-120470443D01*
X95142274Y-120630490D01*
X95326582Y-120833043D01*
X95536675Y-121008707D01*
X95540316Y-121010991D01*
X95765024Y-121151951D01*
X95765028Y-121151953D01*
X95768664Y-121154234D01*
X95836544Y-121184883D01*
X96014345Y-121265164D01*
X96014349Y-121265166D01*
X96018257Y-121266930D01*
X96022377Y-121268150D01*
X96022376Y-121268150D01*
X96276723Y-121343491D01*
X96276727Y-121343492D01*
X96280836Y-121344709D01*
X96285070Y-121345357D01*
X96285075Y-121345358D01*
X96547298Y-121385483D01*
X96547300Y-121385483D01*
X96551540Y-121386132D01*
X96690912Y-121388322D01*
X96821071Y-121390367D01*
X96821077Y-121390367D01*
X96825362Y-121390434D01*
X97097235Y-121357534D01*
X97362127Y-121288041D01*
X97366087Y-121286401D01*
X97366092Y-121286399D01*
X97525709Y-121220283D01*
X97615136Y-121183241D01*
X97851582Y-121045073D01*
X98000720Y-120928134D01*
X101126802Y-120928134D01*
X101133557Y-120990316D01*
X101184687Y-121126705D01*
X101272041Y-121243261D01*
X101388597Y-121330615D01*
X101524986Y-121381745D01*
X101587168Y-121388500D01*
X104683436Y-121388500D01*
X104745618Y-121381745D01*
X104882007Y-121330615D01*
X104998563Y-121243261D01*
X105085917Y-121126705D01*
X105137047Y-120990316D01*
X105143802Y-120928134D01*
X105143802Y-119358918D01*
X106202219Y-119358918D01*
X106217984Y-119632320D01*
X106218809Y-119636525D01*
X106218810Y-119636533D01*
X106229413Y-119690577D01*
X106270707Y-119901053D01*
X106272094Y-119905103D01*
X106272095Y-119905108D01*
X106354734Y-120146475D01*
X106359414Y-120160144D01*
X106482462Y-120404799D01*
X106484888Y-120408328D01*
X106484891Y-120408334D01*
X106527578Y-120470443D01*
X106637576Y-120630490D01*
X106821884Y-120833043D01*
X107031977Y-121008707D01*
X107035618Y-121010991D01*
X107260326Y-121151951D01*
X107260330Y-121151953D01*
X107263966Y-121154234D01*
X107331846Y-121184883D01*
X107509647Y-121265164D01*
X107509651Y-121265166D01*
X107513559Y-121266930D01*
X107517679Y-121268150D01*
X107517678Y-121268150D01*
X107772025Y-121343491D01*
X107772029Y-121343492D01*
X107776138Y-121344709D01*
X107780372Y-121345357D01*
X107780377Y-121345358D01*
X108042600Y-121385483D01*
X108042602Y-121385483D01*
X108046842Y-121386132D01*
X108186214Y-121388322D01*
X108316373Y-121390367D01*
X108316379Y-121390367D01*
X108320664Y-121390434D01*
X108592537Y-121357534D01*
X108857429Y-121288041D01*
X108861389Y-121286401D01*
X108861394Y-121286399D01*
X109021011Y-121220283D01*
X109110438Y-121183241D01*
X109346884Y-121045073D01*
X109562391Y-120876094D01*
X109604111Y-120833043D01*
X109749988Y-120682509D01*
X109752971Y-120679431D01*
X109755504Y-120675983D01*
X109755508Y-120675978D01*
X109912559Y-120462178D01*
X109915097Y-120458723D01*
X109942456Y-120408334D01*
X110043720Y-120221830D01*
X110043721Y-120221828D01*
X110045770Y-120218054D01*
X110142571Y-119961877D01*
X110203709Y-119694933D01*
X110209686Y-119627969D01*
X110227833Y-119424627D01*
X110227834Y-119424616D01*
X110228053Y-119422161D01*
X110228495Y-119380000D01*
X110227058Y-119358918D01*
X111282219Y-119358918D01*
X111297984Y-119632320D01*
X111298809Y-119636525D01*
X111298810Y-119636533D01*
X111309413Y-119690577D01*
X111350707Y-119901053D01*
X111352094Y-119905103D01*
X111352095Y-119905108D01*
X111434734Y-120146475D01*
X111439414Y-120160144D01*
X111562462Y-120404799D01*
X111564888Y-120408328D01*
X111564891Y-120408334D01*
X111607578Y-120470443D01*
X111717576Y-120630490D01*
X111901884Y-120833043D01*
X112111977Y-121008707D01*
X112115618Y-121010991D01*
X112340326Y-121151951D01*
X112340330Y-121151953D01*
X112343966Y-121154234D01*
X112411846Y-121184883D01*
X112589647Y-121265164D01*
X112589651Y-121265166D01*
X112593559Y-121266930D01*
X112597679Y-121268150D01*
X112597678Y-121268150D01*
X112852025Y-121343491D01*
X112852029Y-121343492D01*
X112856138Y-121344709D01*
X112860372Y-121345357D01*
X112860377Y-121345358D01*
X113122600Y-121385483D01*
X113122602Y-121385483D01*
X113126842Y-121386132D01*
X113266214Y-121388322D01*
X113396373Y-121390367D01*
X113396379Y-121390367D01*
X113400664Y-121390434D01*
X113672537Y-121357534D01*
X113937429Y-121288041D01*
X113941389Y-121286401D01*
X113941394Y-121286399D01*
X114071123Y-121232663D01*
X117605890Y-121232663D01*
X117609469Y-121237443D01*
X117669821Y-121264693D01*
X117677851Y-121267680D01*
X117932134Y-121343002D01*
X117940486Y-121344869D01*
X118202642Y-121384984D01*
X118211176Y-121385700D01*
X118476347Y-121389867D01*
X118484898Y-121389418D01*
X118748185Y-121357557D01*
X118756586Y-121355955D01*
X119013122Y-121288654D01*
X119021229Y-121285926D01*
X119133447Y-121239443D01*
X119144426Y-121230595D01*
X119143110Y-121225439D01*
X118388114Y-120470443D01*
X118374170Y-120462829D01*
X118372337Y-120462960D01*
X118365722Y-120467211D01*
X117612650Y-121220283D01*
X117605890Y-121232663D01*
X114071123Y-121232663D01*
X114101011Y-121220283D01*
X114190438Y-121183241D01*
X114426884Y-121045073D01*
X114642391Y-120876094D01*
X114684111Y-120833043D01*
X114829988Y-120682509D01*
X114832971Y-120679431D01*
X114835504Y-120675983D01*
X114835508Y-120675978D01*
X114992559Y-120462178D01*
X114995097Y-120458723D01*
X115022456Y-120408334D01*
X115123720Y-120221830D01*
X115123721Y-120221828D01*
X115125770Y-120218054D01*
X115222571Y-119961877D01*
X115283709Y-119694933D01*
X115289686Y-119627969D01*
X115307833Y-119424627D01*
X115307834Y-119424616D01*
X115308053Y-119422161D01*
X115308495Y-119380000D01*
X115307350Y-119363204D01*
X116362967Y-119363204D01*
X116378234Y-119627969D01*
X116379307Y-119636470D01*
X116430367Y-119896722D01*
X116432578Y-119904974D01*
X116513458Y-120141206D01*
X116521599Y-120152720D01*
X116525444Y-120151992D01*
X116526307Y-120151364D01*
X117284859Y-119392812D01*
X117291237Y-119381132D01*
X119458131Y-119381132D01*
X119458262Y-119382965D01*
X119462513Y-119389580D01*
X120215940Y-120143007D01*
X120228320Y-120149767D01*
X120232111Y-120146929D01*
X120300573Y-119965750D01*
X120303050Y-119957544D01*
X120362256Y-119699038D01*
X120363596Y-119690577D01*
X120387333Y-119424616D01*
X120387579Y-119419677D01*
X120387968Y-119382485D01*
X120387825Y-119377519D01*
X120369664Y-119111123D01*
X120368503Y-119102649D01*
X120314721Y-118842944D01*
X120312422Y-118834709D01*
X120236303Y-118619756D01*
X120228040Y-118608326D01*
X120223866Y-118609161D01*
X120223509Y-118609424D01*
X119465745Y-119367188D01*
X119458131Y-119381132D01*
X117291237Y-119381132D01*
X117292473Y-119378868D01*
X117292342Y-119377035D01*
X117288091Y-119370420D01*
X116534002Y-118616331D01*
X116521622Y-118609571D01*
X116517977Y-118612300D01*
X116444002Y-118814446D01*
X116441613Y-118822670D01*
X116385114Y-119081795D01*
X116383865Y-119090250D01*
X116363056Y-119354653D01*
X116362967Y-119363204D01*
X115307350Y-119363204D01*
X115306767Y-119354648D01*
X115290161Y-119111055D01*
X115290160Y-119111049D01*
X115289869Y-119106778D01*
X115234334Y-118838612D01*
X115142919Y-118580465D01*
X115017315Y-118337112D01*
X115007342Y-118322921D01*
X114862310Y-118116562D01*
X114859847Y-118113057D01*
X114673427Y-117912445D01*
X114670112Y-117909731D01*
X114670108Y-117909728D01*
X114508606Y-117777540D01*
X114461507Y-117738990D01*
X114228006Y-117595901D01*
X114224070Y-117594173D01*
X114076322Y-117529316D01*
X117606169Y-117529316D01*
X117607593Y-117534660D01*
X118362490Y-118289557D01*
X118376434Y-118297171D01*
X118378267Y-118297040D01*
X118384882Y-118292789D01*
X119137594Y-117540077D01*
X119144354Y-117527697D01*
X119140910Y-117523097D01*
X119061006Y-117488022D01*
X119052946Y-117485120D01*
X118797894Y-117412467D01*
X118789516Y-117410685D01*
X118526958Y-117373318D01*
X118518413Y-117372691D01*
X118253210Y-117371302D01*
X118244676Y-117371839D01*
X117981735Y-117406456D01*
X117973337Y-117408149D01*
X117717540Y-117478127D01*
X117709445Y-117480946D01*
X117617057Y-117520352D01*
X117606169Y-117529316D01*
X114076322Y-117529316D01*
X113981175Y-117487549D01*
X113981171Y-117487548D01*
X113977247Y-117485825D01*
X113713868Y-117410800D01*
X113709626Y-117410196D01*
X113709620Y-117410195D01*
X113504689Y-117381029D01*
X113442745Y-117372213D01*
X113298891Y-117371460D01*
X113173179Y-117370802D01*
X113173173Y-117370802D01*
X113168893Y-117370780D01*
X113164649Y-117371339D01*
X113164645Y-117371339D01*
X113056718Y-117385548D01*
X112897380Y-117406525D01*
X112893240Y-117407658D01*
X112893238Y-117407658D01*
X112825339Y-117426233D01*
X112633230Y-117478788D01*
X112629282Y-117480472D01*
X112385284Y-117584546D01*
X112385280Y-117584548D01*
X112381332Y-117586232D01*
X112361427Y-117598145D01*
X112150027Y-117724664D01*
X112150023Y-117724667D01*
X112146345Y-117726868D01*
X111932620Y-117898094D01*
X111744110Y-118096742D01*
X111584304Y-118319136D01*
X111456159Y-118561161D01*
X111454687Y-118565184D01*
X111454685Y-118565188D01*
X111434716Y-118619756D01*
X111362045Y-118818337D01*
X111303706Y-119085907D01*
X111282219Y-119358918D01*
X110227058Y-119358918D01*
X110226767Y-119354648D01*
X110210161Y-119111055D01*
X110210160Y-119111049D01*
X110209869Y-119106778D01*
X110154334Y-118838612D01*
X110062919Y-118580465D01*
X109937315Y-118337112D01*
X109927342Y-118322921D01*
X109782310Y-118116562D01*
X109779847Y-118113057D01*
X109593427Y-117912445D01*
X109590112Y-117909731D01*
X109590108Y-117909728D01*
X109428606Y-117777540D01*
X109381507Y-117738990D01*
X109148006Y-117595901D01*
X109144070Y-117594173D01*
X108901175Y-117487549D01*
X108901171Y-117487548D01*
X108897247Y-117485825D01*
X108633868Y-117410800D01*
X108629626Y-117410196D01*
X108629620Y-117410195D01*
X108424689Y-117381029D01*
X108362745Y-117372213D01*
X108218891Y-117371460D01*
X108093179Y-117370802D01*
X108093173Y-117370802D01*
X108088893Y-117370780D01*
X108084649Y-117371339D01*
X108084645Y-117371339D01*
X107976718Y-117385548D01*
X107817380Y-117406525D01*
X107813240Y-117407658D01*
X107813238Y-117407658D01*
X107745339Y-117426233D01*
X107553230Y-117478788D01*
X107549282Y-117480472D01*
X107305284Y-117584546D01*
X107305280Y-117584548D01*
X107301332Y-117586232D01*
X107281427Y-117598145D01*
X107070027Y-117724664D01*
X107070023Y-117724667D01*
X107066345Y-117726868D01*
X106852620Y-117898094D01*
X106664110Y-118096742D01*
X106504304Y-118319136D01*
X106376159Y-118561161D01*
X106374687Y-118565184D01*
X106374685Y-118565188D01*
X106354716Y-118619756D01*
X106282045Y-118818337D01*
X106223706Y-119085907D01*
X106202219Y-119358918D01*
X105143802Y-119358918D01*
X105143802Y-117831866D01*
X105137047Y-117769684D01*
X105085917Y-117633295D01*
X104998563Y-117516739D01*
X104882007Y-117429385D01*
X104745618Y-117378255D01*
X104683436Y-117371500D01*
X101587168Y-117371500D01*
X101524986Y-117378255D01*
X101388597Y-117429385D01*
X101272041Y-117516739D01*
X101184687Y-117633295D01*
X101133557Y-117769684D01*
X101126802Y-117831866D01*
X101126802Y-120928134D01*
X98000720Y-120928134D01*
X98067089Y-120876094D01*
X98108809Y-120833043D01*
X98254686Y-120682509D01*
X98257669Y-120679431D01*
X98260202Y-120675983D01*
X98260206Y-120675978D01*
X98417257Y-120462178D01*
X98419795Y-120458723D01*
X98447154Y-120408334D01*
X98548418Y-120221830D01*
X98548419Y-120221828D01*
X98550468Y-120218054D01*
X98647269Y-119961877D01*
X98708407Y-119694933D01*
X98714384Y-119627969D01*
X98732531Y-119424627D01*
X98732532Y-119424616D01*
X98732751Y-119422161D01*
X98733193Y-119380000D01*
X98731465Y-119354648D01*
X98714859Y-119111055D01*
X98714858Y-119111049D01*
X98714567Y-119106778D01*
X98659032Y-118838612D01*
X98567617Y-118580465D01*
X98442013Y-118337112D01*
X98432040Y-118322921D01*
X98287008Y-118116562D01*
X98284545Y-118113057D01*
X98098125Y-117912445D01*
X98094810Y-117909731D01*
X98094806Y-117909728D01*
X97933304Y-117777540D01*
X97886205Y-117738990D01*
X97652704Y-117595901D01*
X97648768Y-117594173D01*
X97405873Y-117487549D01*
X97405869Y-117487548D01*
X97401945Y-117485825D01*
X97138566Y-117410800D01*
X97134324Y-117410196D01*
X97134318Y-117410195D01*
X96929387Y-117381029D01*
X96867443Y-117372213D01*
X96723589Y-117371460D01*
X96597877Y-117370802D01*
X96597871Y-117370802D01*
X96593591Y-117370780D01*
X96589347Y-117371339D01*
X96589343Y-117371339D01*
X96481416Y-117385548D01*
X96322078Y-117406525D01*
X96317938Y-117407658D01*
X96317936Y-117407658D01*
X96250037Y-117426233D01*
X96057928Y-117478788D01*
X96053980Y-117480472D01*
X95809982Y-117584546D01*
X95809978Y-117584548D01*
X95806030Y-117586232D01*
X95786125Y-117598145D01*
X95574725Y-117724664D01*
X95574721Y-117724667D01*
X95571043Y-117726868D01*
X95357318Y-117898094D01*
X95168808Y-118096742D01*
X95009002Y-118319136D01*
X94880857Y-118561161D01*
X94879385Y-118565184D01*
X94879383Y-118565188D01*
X94859414Y-118619756D01*
X94786743Y-118818337D01*
X94728404Y-119085907D01*
X94706917Y-119358918D01*
X89008500Y-119358918D01*
X89008500Y-118599885D01*
X89632000Y-118599885D01*
X89636475Y-118615124D01*
X89637865Y-118616329D01*
X89645548Y-118618000D01*
X90859885Y-118618000D01*
X90875124Y-118613525D01*
X90876329Y-118612135D01*
X90878000Y-118604452D01*
X90878000Y-118599885D01*
X92402000Y-118599885D01*
X92406475Y-118615124D01*
X92407865Y-118616329D01*
X92415548Y-118618000D01*
X93629884Y-118618000D01*
X93645123Y-118613525D01*
X93646328Y-118612135D01*
X93647999Y-118604452D01*
X93647999Y-117835331D01*
X93647629Y-117828510D01*
X93642105Y-117777648D01*
X93638479Y-117762396D01*
X93593324Y-117641946D01*
X93584786Y-117626351D01*
X93508285Y-117524276D01*
X93495724Y-117511715D01*
X93393649Y-117435214D01*
X93378054Y-117426676D01*
X93257606Y-117381522D01*
X93242351Y-117377895D01*
X93191486Y-117372369D01*
X93184672Y-117372000D01*
X92420115Y-117372000D01*
X92404876Y-117376475D01*
X92403671Y-117377865D01*
X92402000Y-117385548D01*
X92402000Y-118599885D01*
X90878000Y-118599885D01*
X90878000Y-117390116D01*
X90873525Y-117374877D01*
X90872135Y-117373672D01*
X90864452Y-117372001D01*
X90095331Y-117372001D01*
X90088510Y-117372371D01*
X90037648Y-117377895D01*
X90022396Y-117381521D01*
X89901946Y-117426676D01*
X89886351Y-117435214D01*
X89784276Y-117511715D01*
X89771715Y-117524276D01*
X89695214Y-117626351D01*
X89686676Y-117641946D01*
X89641522Y-117762394D01*
X89637895Y-117777649D01*
X89632369Y-117828514D01*
X89632000Y-117835328D01*
X89632000Y-118599885D01*
X89008500Y-118599885D01*
X89008500Y-112080146D01*
X90031500Y-112080146D01*
X90046189Y-112290212D01*
X90104591Y-112564970D01*
X90200663Y-112828926D01*
X90332536Y-113076942D01*
X90335122Y-113080501D01*
X90335123Y-113080503D01*
X90417184Y-113193450D01*
X90497642Y-113304192D01*
X90692769Y-113506252D01*
X90914118Y-113679188D01*
X90917922Y-113681384D01*
X90917929Y-113681389D01*
X91115067Y-113795206D01*
X91157381Y-113819636D01*
X91417824Y-113924862D01*
X91422097Y-113925927D01*
X91422099Y-113925928D01*
X91686107Y-113991753D01*
X91686112Y-113991754D01*
X91690376Y-113992817D01*
X91694744Y-113993276D01*
X91694749Y-113993277D01*
X91965364Y-114021719D01*
X91965367Y-114021719D01*
X91969733Y-114022178D01*
X91974121Y-114022025D01*
X91974127Y-114022025D01*
X92246061Y-114012529D01*
X92246067Y-114012528D01*
X92250458Y-114012375D01*
X92254781Y-114011613D01*
X92254788Y-114011612D01*
X92430494Y-113980630D01*
X92527087Y-113963598D01*
X92794235Y-113876797D01*
X92798188Y-113874869D01*
X92798193Y-113874867D01*
X92911432Y-113819636D01*
X93046702Y-113753660D01*
X93050341Y-113751205D01*
X93050347Y-113751202D01*
X93161125Y-113676481D01*
X93279576Y-113596585D01*
X93488322Y-113408629D01*
X93668879Y-113193450D01*
X93817731Y-112955236D01*
X93826632Y-112935244D01*
X93872612Y-112881148D01*
X93940539Y-112860499D01*
X94008848Y-112879851D01*
X94052990Y-112927339D01*
X94099081Y-113014022D01*
X94132536Y-113076942D01*
X94135122Y-113080501D01*
X94135123Y-113080503D01*
X94217184Y-113193450D01*
X94297642Y-113304192D01*
X94492769Y-113506252D01*
X94714118Y-113679188D01*
X94717922Y-113681384D01*
X94717929Y-113681389D01*
X94915067Y-113795206D01*
X94957381Y-113819636D01*
X95217824Y-113924862D01*
X95222097Y-113925927D01*
X95222099Y-113925928D01*
X95486107Y-113991753D01*
X95486112Y-113991754D01*
X95490376Y-113992817D01*
X95494744Y-113993276D01*
X95494749Y-113993277D01*
X95765364Y-114021719D01*
X95765367Y-114021719D01*
X95769733Y-114022178D01*
X95774121Y-114022025D01*
X95774127Y-114022025D01*
X96046061Y-114012529D01*
X96046067Y-114012528D01*
X96050458Y-114012375D01*
X96054781Y-114011613D01*
X96054788Y-114011612D01*
X96230494Y-113980630D01*
X96327087Y-113963598D01*
X96594235Y-113876797D01*
X96598188Y-113874869D01*
X96598193Y-113874867D01*
X96711432Y-113819636D01*
X96846702Y-113753660D01*
X96850341Y-113751205D01*
X96850347Y-113751202D01*
X96961125Y-113676481D01*
X97079576Y-113596585D01*
X97288322Y-113408629D01*
X97468879Y-113193450D01*
X97617731Y-112955236D01*
X97731982Y-112698625D01*
X97809407Y-112428610D01*
X97848500Y-112150448D01*
X97848500Y-112080146D01*
X98131500Y-112080146D01*
X98146189Y-112290212D01*
X98204591Y-112564970D01*
X98300663Y-112828926D01*
X98432536Y-113076942D01*
X98435122Y-113080501D01*
X98435123Y-113080503D01*
X98517184Y-113193450D01*
X98597642Y-113304192D01*
X98792769Y-113506252D01*
X99014118Y-113679188D01*
X99017922Y-113681384D01*
X99017929Y-113681389D01*
X99215067Y-113795206D01*
X99257381Y-113819636D01*
X99517824Y-113924862D01*
X99522097Y-113925927D01*
X99522099Y-113925928D01*
X99786107Y-113991753D01*
X99786112Y-113991754D01*
X99790376Y-113992817D01*
X99794744Y-113993276D01*
X99794749Y-113993277D01*
X100065364Y-114021719D01*
X100065367Y-114021719D01*
X100069733Y-114022178D01*
X100074121Y-114022025D01*
X100074127Y-114022025D01*
X100346061Y-114012529D01*
X100346067Y-114012528D01*
X100350458Y-114012375D01*
X100354781Y-114011613D01*
X100354788Y-114011612D01*
X100530494Y-113980630D01*
X100627087Y-113963598D01*
X100894235Y-113876797D01*
X100898188Y-113874869D01*
X100898193Y-113874867D01*
X101011432Y-113819636D01*
X101146702Y-113753660D01*
X101150341Y-113751205D01*
X101150347Y-113751202D01*
X101261125Y-113676481D01*
X101379576Y-113596585D01*
X101588322Y-113408629D01*
X101768879Y-113193450D01*
X101917731Y-112955236D01*
X101926632Y-112935244D01*
X101972612Y-112881148D01*
X102040539Y-112860499D01*
X102108848Y-112879851D01*
X102152990Y-112927339D01*
X102199081Y-113014022D01*
X102232536Y-113076942D01*
X102235122Y-113080501D01*
X102235123Y-113080503D01*
X102317184Y-113193450D01*
X102397642Y-113304192D01*
X102592769Y-113506252D01*
X102814118Y-113679188D01*
X102817922Y-113681384D01*
X102817929Y-113681389D01*
X103015067Y-113795206D01*
X103057381Y-113819636D01*
X103317824Y-113924862D01*
X103322097Y-113925927D01*
X103322099Y-113925928D01*
X103586107Y-113991753D01*
X103586112Y-113991754D01*
X103590376Y-113992817D01*
X103594744Y-113993276D01*
X103594749Y-113993277D01*
X103865364Y-114021719D01*
X103865367Y-114021719D01*
X103869733Y-114022178D01*
X103874121Y-114022025D01*
X103874127Y-114022025D01*
X104146061Y-114012529D01*
X104146067Y-114012528D01*
X104150458Y-114012375D01*
X104154781Y-114011613D01*
X104154788Y-114011612D01*
X104330494Y-113980630D01*
X104427087Y-113963598D01*
X104694235Y-113876797D01*
X104698188Y-113874869D01*
X104698193Y-113874867D01*
X104811432Y-113819636D01*
X104946702Y-113753660D01*
X104950341Y-113751205D01*
X104950347Y-113751202D01*
X105061125Y-113676481D01*
X105179576Y-113596585D01*
X105388322Y-113408629D01*
X105568879Y-113193450D01*
X105717731Y-112955236D01*
X105831982Y-112698625D01*
X105909407Y-112428610D01*
X105948500Y-112150448D01*
X105948500Y-111439854D01*
X105941387Y-111338134D01*
X109381500Y-111338134D01*
X109388255Y-111400316D01*
X109439385Y-111536705D01*
X109526739Y-111653261D01*
X109643295Y-111740615D01*
X109779684Y-111791745D01*
X109841866Y-111798500D01*
X111538134Y-111798500D01*
X111600316Y-111791745D01*
X111627311Y-111781625D01*
X113980714Y-111781625D01*
X113991106Y-111785595D01*
X114184525Y-111802517D01*
X114195475Y-111802517D01*
X114388387Y-111785640D01*
X114399391Y-111781335D01*
X114393981Y-111771611D01*
X114202808Y-111580439D01*
X114188870Y-111572828D01*
X114187034Y-111572960D01*
X114180422Y-111577209D01*
X113986378Y-111771252D01*
X113980714Y-111781625D01*
X111627311Y-111781625D01*
X111736705Y-111740615D01*
X111853261Y-111653261D01*
X111940615Y-111536705D01*
X111991745Y-111400316D01*
X111998500Y-111338134D01*
X111998500Y-110495475D01*
X112877483Y-110495475D01*
X112894360Y-110688387D01*
X112898665Y-110699391D01*
X112908389Y-110693981D01*
X113099561Y-110502808D01*
X113105938Y-110491130D01*
X115272828Y-110491130D01*
X115272960Y-110492966D01*
X115277209Y-110499578D01*
X115471252Y-110693622D01*
X115481625Y-110699286D01*
X115485595Y-110688894D01*
X115490595Y-110631740D01*
X118458644Y-110631740D01*
X118460891Y-110637968D01*
X118477692Y-110665386D01*
X118483777Y-110673699D01*
X118623213Y-110834667D01*
X118630580Y-110841883D01*
X118794434Y-110977916D01*
X118802492Y-110983559D01*
X118816046Y-110986922D01*
X118816965Y-110985766D01*
X118818000Y-110980470D01*
X118818000Y-110645115D01*
X118813525Y-110629876D01*
X118812135Y-110628671D01*
X118804452Y-110627000D01*
X118472285Y-110627000D01*
X118458754Y-110630973D01*
X118458644Y-110631740D01*
X115490595Y-110631740D01*
X115502517Y-110495475D01*
X115502517Y-110484525D01*
X115485640Y-110291613D01*
X115481335Y-110280609D01*
X115471611Y-110286019D01*
X115280439Y-110477192D01*
X115272828Y-110491130D01*
X113105938Y-110491130D01*
X113107172Y-110488870D01*
X113107040Y-110487034D01*
X113102791Y-110480422D01*
X112908748Y-110286378D01*
X112898375Y-110280714D01*
X112894405Y-110291106D01*
X112877483Y-110484525D01*
X112877483Y-110495475D01*
X111998500Y-110495475D01*
X111998500Y-109641866D01*
X111991745Y-109579684D01*
X111940615Y-109443295D01*
X111853261Y-109326739D01*
X111736705Y-109239385D01*
X111628085Y-109198665D01*
X113980609Y-109198665D01*
X113986019Y-109208389D01*
X114177192Y-109399561D01*
X114191130Y-109407172D01*
X114192966Y-109407040D01*
X114199578Y-109402791D01*
X114393622Y-109208748D01*
X114399286Y-109198375D01*
X114388894Y-109194405D01*
X114195475Y-109177483D01*
X114184525Y-109177483D01*
X113991613Y-109194360D01*
X113980609Y-109198665D01*
X111628085Y-109198665D01*
X111600316Y-109188255D01*
X111538134Y-109181500D01*
X109841866Y-109181500D01*
X109779684Y-109188255D01*
X109643295Y-109239385D01*
X109526739Y-109326739D01*
X109439385Y-109443295D01*
X109388255Y-109579684D01*
X109381500Y-109641866D01*
X109381500Y-111338134D01*
X105941387Y-111338134D01*
X105933811Y-111229788D01*
X105875409Y-110955030D01*
X105858580Y-110908792D01*
X105780846Y-110695219D01*
X105780844Y-110695215D01*
X105779337Y-110691074D01*
X105647464Y-110443058D01*
X105565528Y-110330282D01*
X105484947Y-110219371D01*
X105484944Y-110219368D01*
X105482358Y-110215808D01*
X105287231Y-110013748D01*
X105065882Y-109840812D01*
X105062078Y-109838616D01*
X105062071Y-109838611D01*
X104826431Y-109702565D01*
X104822619Y-109700364D01*
X104562176Y-109595138D01*
X104557901Y-109594072D01*
X104293893Y-109528247D01*
X104293888Y-109528246D01*
X104289624Y-109527183D01*
X104285256Y-109526724D01*
X104285251Y-109526723D01*
X104014636Y-109498281D01*
X104014633Y-109498281D01*
X104010267Y-109497822D01*
X104005879Y-109497975D01*
X104005873Y-109497975D01*
X103733939Y-109507471D01*
X103733933Y-109507472D01*
X103729542Y-109507625D01*
X103725219Y-109508387D01*
X103725212Y-109508388D01*
X103549506Y-109539370D01*
X103452913Y-109556402D01*
X103185765Y-109643203D01*
X103181812Y-109645131D01*
X103181807Y-109645133D01*
X103071947Y-109698716D01*
X102933298Y-109766340D01*
X102929659Y-109768795D01*
X102929653Y-109768798D01*
X102826151Y-109838611D01*
X102700424Y-109923415D01*
X102491678Y-110111371D01*
X102311121Y-110326550D01*
X102162269Y-110564764D01*
X102160484Y-110568774D01*
X102153368Y-110584756D01*
X102107388Y-110638852D01*
X102039461Y-110659501D01*
X101971152Y-110640149D01*
X101927010Y-110592661D01*
X101871125Y-110487557D01*
X101847464Y-110443058D01*
X101765528Y-110330282D01*
X101684947Y-110219371D01*
X101684944Y-110219368D01*
X101682358Y-110215808D01*
X101487231Y-110013748D01*
X101265882Y-109840812D01*
X101262078Y-109838616D01*
X101262071Y-109838611D01*
X101026431Y-109702565D01*
X101022619Y-109700364D01*
X100762176Y-109595138D01*
X100757901Y-109594072D01*
X100493893Y-109528247D01*
X100493888Y-109528246D01*
X100489624Y-109527183D01*
X100485256Y-109526724D01*
X100485251Y-109526723D01*
X100214636Y-109498281D01*
X100214633Y-109498281D01*
X100210267Y-109497822D01*
X100205879Y-109497975D01*
X100205873Y-109497975D01*
X99933939Y-109507471D01*
X99933933Y-109507472D01*
X99929542Y-109507625D01*
X99925219Y-109508387D01*
X99925212Y-109508388D01*
X99749506Y-109539370D01*
X99652913Y-109556402D01*
X99385765Y-109643203D01*
X99381812Y-109645131D01*
X99381807Y-109645133D01*
X99271947Y-109698716D01*
X99133298Y-109766340D01*
X99129659Y-109768795D01*
X99129653Y-109768798D01*
X99026151Y-109838611D01*
X98900424Y-109923415D01*
X98691678Y-110111371D01*
X98511121Y-110326550D01*
X98362269Y-110564764D01*
X98248018Y-110821375D01*
X98238652Y-110854040D01*
X98200549Y-110986922D01*
X98170593Y-111091390D01*
X98131500Y-111369552D01*
X98131500Y-112080146D01*
X97848500Y-112080146D01*
X97848500Y-111439854D01*
X97833811Y-111229788D01*
X97775409Y-110955030D01*
X97758580Y-110908792D01*
X97680846Y-110695219D01*
X97680844Y-110695215D01*
X97679337Y-110691074D01*
X97547464Y-110443058D01*
X97465528Y-110330282D01*
X97384947Y-110219371D01*
X97384944Y-110219368D01*
X97382358Y-110215808D01*
X97187231Y-110013748D01*
X96965882Y-109840812D01*
X96962078Y-109838616D01*
X96962071Y-109838611D01*
X96726431Y-109702565D01*
X96722619Y-109700364D01*
X96462176Y-109595138D01*
X96457901Y-109594072D01*
X96193893Y-109528247D01*
X96193888Y-109528246D01*
X96189624Y-109527183D01*
X96185256Y-109526724D01*
X96185251Y-109526723D01*
X95914636Y-109498281D01*
X95914633Y-109498281D01*
X95910267Y-109497822D01*
X95905879Y-109497975D01*
X95905873Y-109497975D01*
X95633939Y-109507471D01*
X95633933Y-109507472D01*
X95629542Y-109507625D01*
X95625219Y-109508387D01*
X95625212Y-109508388D01*
X95449506Y-109539370D01*
X95352913Y-109556402D01*
X95085765Y-109643203D01*
X95081812Y-109645131D01*
X95081807Y-109645133D01*
X94971947Y-109698716D01*
X94833298Y-109766340D01*
X94829659Y-109768795D01*
X94829653Y-109768798D01*
X94726151Y-109838611D01*
X94600424Y-109923415D01*
X94391678Y-110111371D01*
X94211121Y-110326550D01*
X94062269Y-110564764D01*
X94060484Y-110568774D01*
X94053368Y-110584756D01*
X94007388Y-110638852D01*
X93939461Y-110659501D01*
X93871152Y-110640149D01*
X93827010Y-110592661D01*
X93771125Y-110487557D01*
X93747464Y-110443058D01*
X93665528Y-110330282D01*
X93584947Y-110219371D01*
X93584944Y-110219368D01*
X93582358Y-110215808D01*
X93387231Y-110013748D01*
X93165882Y-109840812D01*
X93162078Y-109838616D01*
X93162071Y-109838611D01*
X92926431Y-109702565D01*
X92922619Y-109700364D01*
X92662176Y-109595138D01*
X92657901Y-109594072D01*
X92393893Y-109528247D01*
X92393888Y-109528246D01*
X92389624Y-109527183D01*
X92385256Y-109526724D01*
X92385251Y-109526723D01*
X92114636Y-109498281D01*
X92114633Y-109498281D01*
X92110267Y-109497822D01*
X92105879Y-109497975D01*
X92105873Y-109497975D01*
X91833939Y-109507471D01*
X91833933Y-109507472D01*
X91829542Y-109507625D01*
X91825219Y-109508387D01*
X91825212Y-109508388D01*
X91649506Y-109539370D01*
X91552913Y-109556402D01*
X91285765Y-109643203D01*
X91281812Y-109645131D01*
X91281807Y-109645133D01*
X91171947Y-109698716D01*
X91033298Y-109766340D01*
X91029659Y-109768795D01*
X91029653Y-109768798D01*
X90926151Y-109838611D01*
X90800424Y-109923415D01*
X90591678Y-110111371D01*
X90411121Y-110326550D01*
X90262269Y-110564764D01*
X90148018Y-110821375D01*
X90138652Y-110854040D01*
X90100549Y-110986922D01*
X90070593Y-111091390D01*
X90031500Y-111369552D01*
X90031500Y-112080146D01*
X89008500Y-112080146D01*
X89008500Y-99568000D01*
X90472496Y-99568000D01*
X90473186Y-99574565D01*
X90487858Y-99714158D01*
X90492458Y-99757928D01*
X90551473Y-99939556D01*
X90646960Y-100104944D01*
X90651378Y-100109851D01*
X90651379Y-100109852D01*
X90668565Y-100128939D01*
X90774747Y-100246866D01*
X90929248Y-100359118D01*
X90935276Y-100361802D01*
X90935278Y-100361803D01*
X91007855Y-100394116D01*
X91103712Y-100436794D01*
X91197112Y-100456647D01*
X91284056Y-100475128D01*
X91284061Y-100475128D01*
X91290513Y-100476500D01*
X91481487Y-100476500D01*
X91487939Y-100475128D01*
X91487944Y-100475128D01*
X91588839Y-100453681D01*
X91645795Y-100441575D01*
X91716585Y-100446977D01*
X91738108Y-100457563D01*
X91778348Y-100482368D01*
X91778351Y-100482370D01*
X91784580Y-100486209D01*
X91949691Y-100540974D01*
X91956527Y-100541674D01*
X91956530Y-100541675D01*
X92008026Y-100546951D01*
X92052428Y-100551500D01*
X92751572Y-100551500D01*
X92754818Y-100551163D01*
X92754822Y-100551163D01*
X92848735Y-100541419D01*
X92848739Y-100541418D01*
X92855593Y-100540707D01*
X92862129Y-100538526D01*
X92862131Y-100538526D01*
X92994895Y-100494232D01*
X93020607Y-100485654D01*
X93168531Y-100394116D01*
X93175774Y-100386861D01*
X93177538Y-100385895D01*
X93179441Y-100384387D01*
X93179699Y-100384713D01*
X93238054Y-100352781D01*
X93308875Y-100357782D01*
X93353970Y-100386708D01*
X93356631Y-100389364D01*
X93368040Y-100398375D01*
X93503563Y-100481912D01*
X93516741Y-100488056D01*
X93634806Y-100527217D01*
X93648899Y-100527706D01*
X93652000Y-100521494D01*
X93652000Y-100514922D01*
X94602000Y-100514922D01*
X94605973Y-100528453D01*
X94612799Y-100529434D01*
X94738453Y-100487512D01*
X94751615Y-100481347D01*
X94886992Y-100397574D01*
X94898390Y-100388540D01*
X95010863Y-100275871D01*
X95019875Y-100264460D01*
X95103410Y-100128939D01*
X95109557Y-100115758D01*
X95127987Y-100060194D01*
X95128476Y-100046101D01*
X95122265Y-100043000D01*
X94620115Y-100043000D01*
X94604876Y-100047475D01*
X94603671Y-100048865D01*
X94602000Y-100056548D01*
X94602000Y-100514922D01*
X93652000Y-100514922D01*
X93652000Y-99074885D01*
X94602000Y-99074885D01*
X94606475Y-99090124D01*
X94607865Y-99091329D01*
X94615548Y-99093000D01*
X95115570Y-99093000D01*
X95129101Y-99089027D01*
X95130082Y-99082201D01*
X95109012Y-99019047D01*
X95102847Y-99005885D01*
X95019074Y-98870508D01*
X95010040Y-98859110D01*
X94897371Y-98746637D01*
X94885960Y-98737625D01*
X94750437Y-98654088D01*
X94737259Y-98647944D01*
X94619194Y-98608783D01*
X94605101Y-98608294D01*
X94602000Y-98614506D01*
X94602000Y-99074885D01*
X93652000Y-99074885D01*
X93652000Y-98621078D01*
X93648027Y-98607547D01*
X93641201Y-98606566D01*
X93515547Y-98648488D01*
X93502385Y-98654653D01*
X93367008Y-98738426D01*
X93355606Y-98747464D01*
X93353933Y-98749139D01*
X93352507Y-98749919D01*
X93349873Y-98752007D01*
X93349516Y-98751556D01*
X93291651Y-98783219D01*
X93220831Y-98778216D01*
X93175746Y-98749299D01*
X93172685Y-98746244D01*
X93167503Y-98741071D01*
X93156929Y-98734553D01*
X93025650Y-98653631D01*
X93025648Y-98653630D01*
X93019420Y-98649791D01*
X92854309Y-98595026D01*
X92847473Y-98594326D01*
X92847470Y-98594325D01*
X92788007Y-98588233D01*
X92751572Y-98584500D01*
X92543371Y-98584500D01*
X92475250Y-98564498D01*
X92454276Y-98547595D01*
X92181405Y-98274724D01*
X92147379Y-98212412D01*
X92144500Y-98185629D01*
X92144500Y-95278999D01*
X92161381Y-95215999D01*
X92217223Y-95119279D01*
X92217224Y-95119278D01*
X92220527Y-95113556D01*
X92279542Y-94931928D01*
X92299504Y-94742000D01*
X92279542Y-94552072D01*
X92220527Y-94370444D01*
X92125040Y-94205056D01*
X91997253Y-94063134D01*
X91842752Y-93950882D01*
X91836724Y-93948198D01*
X91836722Y-93948197D01*
X91674319Y-93875891D01*
X91674318Y-93875891D01*
X91668288Y-93873206D01*
X91574888Y-93853353D01*
X91487944Y-93834872D01*
X91487939Y-93834872D01*
X91481487Y-93833500D01*
X91290513Y-93833500D01*
X91284061Y-93834872D01*
X91284056Y-93834872D01*
X91197112Y-93853353D01*
X91103712Y-93873206D01*
X91097682Y-93875891D01*
X91097681Y-93875891D01*
X90935278Y-93948197D01*
X90935276Y-93948198D01*
X90929248Y-93950882D01*
X90774747Y-94063134D01*
X90646960Y-94205056D01*
X90551473Y-94370444D01*
X90492458Y-94552072D01*
X90472496Y-94742000D01*
X90492458Y-94931928D01*
X90551473Y-95113556D01*
X90554776Y-95119278D01*
X90554777Y-95119279D01*
X90610619Y-95215999D01*
X90627500Y-95278999D01*
X90627500Y-98484930D01*
X90626067Y-98503880D01*
X90622801Y-98525349D01*
X90623394Y-98532641D01*
X90623394Y-98532644D01*
X90627085Y-98578018D01*
X90627500Y-98588233D01*
X90627500Y-98596293D01*
X90627925Y-98599937D01*
X90630789Y-98624507D01*
X90631222Y-98628882D01*
X90632773Y-98647944D01*
X90637140Y-98701637D01*
X90639396Y-98708601D01*
X90640587Y-98714560D01*
X90641971Y-98720415D01*
X90642818Y-98727681D01*
X90667735Y-98796327D01*
X90669152Y-98800455D01*
X90689393Y-98862937D01*
X90689395Y-98862942D01*
X90691649Y-98869899D01*
X90692047Y-98870554D01*
X90701833Y-98938154D01*
X90670736Y-99004650D01*
X90646960Y-99031056D01*
X90551473Y-99196444D01*
X90492458Y-99378072D01*
X90472496Y-99568000D01*
X89008500Y-99568000D01*
X89008500Y-91314299D01*
X108021248Y-91314299D01*
X108046488Y-91389953D01*
X108052653Y-91403115D01*
X108136426Y-91538492D01*
X108145460Y-91549890D01*
X108258129Y-91662363D01*
X108269540Y-91671375D01*
X108405061Y-91754910D01*
X108418242Y-91761057D01*
X108473806Y-91779487D01*
X108487899Y-91779976D01*
X108491000Y-91773765D01*
X108491000Y-91767070D01*
X109441000Y-91767070D01*
X109444973Y-91780601D01*
X109451799Y-91781582D01*
X109514953Y-91760512D01*
X109528115Y-91754347D01*
X109663492Y-91670574D01*
X109674890Y-91661540D01*
X109787363Y-91548871D01*
X109796375Y-91537460D01*
X109879910Y-91401939D01*
X109886057Y-91388758D01*
X109908633Y-91320694D01*
X109909122Y-91306601D01*
X109902911Y-91303500D01*
X109459115Y-91303500D01*
X109443876Y-91307975D01*
X109442671Y-91309365D01*
X109441000Y-91317048D01*
X109441000Y-91767070D01*
X108491000Y-91767070D01*
X108491000Y-91321615D01*
X108486525Y-91306376D01*
X108485135Y-91305171D01*
X108477452Y-91303500D01*
X108035760Y-91303500D01*
X108022229Y-91307473D01*
X108021248Y-91314299D01*
X89008500Y-91314299D01*
X89008500Y-86570695D01*
X92055251Y-86570695D01*
X92055548Y-86575848D01*
X92055548Y-86575851D01*
X92066137Y-86759502D01*
X92068110Y-86793715D01*
X92069247Y-86798761D01*
X92069248Y-86798767D01*
X92087383Y-86879237D01*
X92117222Y-87011639D01*
X92201266Y-87218616D01*
X92317987Y-87409088D01*
X92464250Y-87577938D01*
X92468230Y-87581242D01*
X92472981Y-87585187D01*
X92512616Y-87644090D01*
X92514113Y-87715071D01*
X92476997Y-87775593D01*
X92436724Y-87800112D01*
X92321295Y-87843385D01*
X92204739Y-87930739D01*
X92117385Y-88047295D01*
X92066255Y-88183684D01*
X92059500Y-88245866D01*
X92059500Y-90042134D01*
X92066255Y-90104316D01*
X92117385Y-90240705D01*
X92204739Y-90357261D01*
X92321295Y-90444615D01*
X92457684Y-90495745D01*
X92519866Y-90502500D01*
X94316134Y-90502500D01*
X94378316Y-90495745D01*
X94514705Y-90444615D01*
X94631261Y-90357261D01*
X94718615Y-90240705D01*
X94769745Y-90104316D01*
X94776500Y-90042134D01*
X94776500Y-89303072D01*
X107982500Y-89303072D01*
X107993293Y-89407093D01*
X108048346Y-89572107D01*
X108139884Y-89720031D01*
X108247141Y-89827101D01*
X108281220Y-89889382D01*
X108276217Y-89960202D01*
X108247296Y-90005291D01*
X108144637Y-90108129D01*
X108135625Y-90119540D01*
X108052090Y-90255061D01*
X108045943Y-90268242D01*
X108023367Y-90336306D01*
X108022878Y-90350399D01*
X108029089Y-90353500D01*
X109896240Y-90353500D01*
X109911479Y-90349025D01*
X109922209Y-90336642D01*
X109981935Y-90298258D01*
X110043631Y-90295907D01*
X110134056Y-90315128D01*
X110134061Y-90315128D01*
X110140513Y-90316500D01*
X110331487Y-90316500D01*
X110337939Y-90315128D01*
X110337944Y-90315128D01*
X110428369Y-90295907D01*
X110518288Y-90276794D01*
X110524319Y-90274109D01*
X110686722Y-90201803D01*
X110686724Y-90201802D01*
X110692752Y-90199118D01*
X110847253Y-90086866D01*
X110890607Y-90038717D01*
X110970621Y-89949852D01*
X110970622Y-89949851D01*
X110975040Y-89944944D01*
X111070527Y-89779556D01*
X111129542Y-89597928D01*
X111149504Y-89408000D01*
X111138476Y-89303072D01*
X111130232Y-89224635D01*
X111130232Y-89224633D01*
X111129542Y-89218072D01*
X111070527Y-89036444D01*
X110975040Y-88871056D01*
X110847253Y-88729134D01*
X110692752Y-88616882D01*
X110686724Y-88614198D01*
X110686722Y-88614197D01*
X110524319Y-88541891D01*
X110524318Y-88541891D01*
X110518288Y-88539206D01*
X110424887Y-88519353D01*
X110337944Y-88500872D01*
X110337939Y-88500872D01*
X110331487Y-88499500D01*
X110262067Y-88499500D01*
X110201361Y-88483912D01*
X110189064Y-88477151D01*
X110172547Y-88466301D01*
X110172083Y-88465941D01*
X110156541Y-88453886D01*
X110149272Y-88450741D01*
X110149268Y-88450738D01*
X110115963Y-88436326D01*
X110105313Y-88431109D01*
X110066560Y-88409805D01*
X110046937Y-88404767D01*
X110028234Y-88398363D01*
X110016920Y-88393467D01*
X110016919Y-88393467D01*
X110009645Y-88390319D01*
X110001822Y-88389080D01*
X110001812Y-88389077D01*
X109965976Y-88383401D01*
X109954356Y-88380995D01*
X109919204Y-88371970D01*
X109919202Y-88371970D01*
X109911530Y-88370000D01*
X109903609Y-88370000D01*
X109898092Y-88369303D01*
X109833015Y-88340921D01*
X109806739Y-88310599D01*
X109795968Y-88293192D01*
X109795963Y-88293186D01*
X109792116Y-88286969D01*
X109750941Y-88245866D01*
X109674184Y-88169242D01*
X109674179Y-88169238D01*
X109669003Y-88164071D01*
X109520920Y-88072791D01*
X109355809Y-88018026D01*
X109348973Y-88017326D01*
X109348970Y-88017325D01*
X109297474Y-88012049D01*
X109253072Y-88007500D01*
X108678928Y-88007500D01*
X108675682Y-88007837D01*
X108675678Y-88007837D01*
X108581765Y-88017581D01*
X108581761Y-88017582D01*
X108574907Y-88018293D01*
X108568371Y-88020474D01*
X108568369Y-88020474D01*
X108435605Y-88064768D01*
X108409893Y-88073346D01*
X108261969Y-88164884D01*
X108256796Y-88170066D01*
X108144242Y-88282816D01*
X108144238Y-88282821D01*
X108139071Y-88287997D01*
X108135231Y-88294227D01*
X108135230Y-88294228D01*
X108067093Y-88404767D01*
X108047791Y-88436080D01*
X107993026Y-88601191D01*
X107982500Y-88703928D01*
X107982500Y-89303072D01*
X94776500Y-89303072D01*
X94776500Y-88245866D01*
X94769745Y-88183684D01*
X94718615Y-88047295D01*
X94631261Y-87930739D01*
X94514705Y-87843385D01*
X94502132Y-87838672D01*
X94396203Y-87798960D01*
X94339439Y-87756318D01*
X94314739Y-87689756D01*
X94329947Y-87620408D01*
X94351493Y-87591727D01*
X94452435Y-87491137D01*
X94456096Y-87487489D01*
X94515594Y-87404689D01*
X94583435Y-87310277D01*
X94586453Y-87306077D01*
X94685430Y-87105811D01*
X94729490Y-86960794D01*
X94748865Y-86897023D01*
X94748865Y-86897021D01*
X94750370Y-86892069D01*
X94779529Y-86670590D01*
X94780427Y-86633852D01*
X94781074Y-86607365D01*
X94781074Y-86607361D01*
X94781156Y-86604000D01*
X94762852Y-86381361D01*
X94708431Y-86164702D01*
X94619354Y-85959840D01*
X94508139Y-85787928D01*
X94500822Y-85776617D01*
X94500820Y-85776614D01*
X94498014Y-85772277D01*
X94347670Y-85607051D01*
X94343619Y-85603852D01*
X94343615Y-85603848D01*
X94176414Y-85471800D01*
X94176410Y-85471798D01*
X94172359Y-85468598D01*
X94131053Y-85445796D01*
X94081084Y-85395364D01*
X94066312Y-85325921D01*
X94091428Y-85259516D01*
X94118780Y-85232909D01*
X94185263Y-85185487D01*
X94297860Y-85105173D01*
X94336394Y-85066774D01*
X94429776Y-84973717D01*
X94456096Y-84947489D01*
X94515594Y-84864689D01*
X94583435Y-84770277D01*
X94586453Y-84766077D01*
X94685430Y-84565811D01*
X94750370Y-84352069D01*
X94779529Y-84130590D01*
X94781156Y-84064000D01*
X94762852Y-83841361D01*
X94708431Y-83624702D01*
X94619354Y-83419840D01*
X94555027Y-83320405D01*
X94500822Y-83236617D01*
X94500820Y-83236614D01*
X94498014Y-83232277D01*
X94347670Y-83067051D01*
X94343619Y-83063852D01*
X94343615Y-83063848D01*
X94176414Y-82931800D01*
X94176410Y-82931798D01*
X94172359Y-82928598D01*
X94131053Y-82905796D01*
X94081084Y-82855364D01*
X94066312Y-82785921D01*
X94091428Y-82719516D01*
X94118780Y-82692909D01*
X94178837Y-82650071D01*
X94297860Y-82565173D01*
X94343004Y-82520187D01*
X94452435Y-82411137D01*
X94456096Y-82407489D01*
X94515594Y-82324689D01*
X94583435Y-82230277D01*
X94586453Y-82226077D01*
X94674185Y-82048565D01*
X94683136Y-82030453D01*
X94683137Y-82030451D01*
X94685430Y-82025811D01*
X94740124Y-81845794D01*
X94748865Y-81817023D01*
X94748865Y-81817021D01*
X94750370Y-81812069D01*
X94779529Y-81590590D01*
X94780790Y-81539000D01*
X94781074Y-81527365D01*
X94781074Y-81527361D01*
X94781156Y-81524000D01*
X94762852Y-81301361D01*
X94708431Y-81084702D01*
X94619354Y-80879840D01*
X94539337Y-80756152D01*
X94500822Y-80696617D01*
X94500820Y-80696614D01*
X94498014Y-80692277D01*
X94347670Y-80527051D01*
X94343619Y-80523852D01*
X94343615Y-80523848D01*
X94176414Y-80391800D01*
X94176410Y-80391798D01*
X94172359Y-80388598D01*
X93976789Y-80280638D01*
X93971920Y-80278914D01*
X93971916Y-80278912D01*
X93771087Y-80207795D01*
X93771083Y-80207794D01*
X93766212Y-80206069D01*
X93761119Y-80205162D01*
X93761116Y-80205161D01*
X93551373Y-80167800D01*
X93551367Y-80167799D01*
X93546284Y-80166894D01*
X93472452Y-80165992D01*
X93328081Y-80164228D01*
X93328079Y-80164228D01*
X93322911Y-80164165D01*
X93102091Y-80197955D01*
X92889756Y-80267357D01*
X92691607Y-80370507D01*
X92687474Y-80373610D01*
X92687471Y-80373612D01*
X92540264Y-80484138D01*
X92512965Y-80504635D01*
X92358629Y-80666138D01*
X92232743Y-80850680D01*
X92138688Y-81053305D01*
X92078989Y-81268570D01*
X92055251Y-81490695D01*
X92055548Y-81495848D01*
X92055548Y-81495851D01*
X92061876Y-81605590D01*
X92068110Y-81713715D01*
X92069247Y-81718761D01*
X92069248Y-81718767D01*
X92071490Y-81728715D01*
X92117222Y-81931639D01*
X92201266Y-82138616D01*
X92317987Y-82329088D01*
X92464250Y-82497938D01*
X92636126Y-82640632D01*
X92652279Y-82650071D01*
X92709445Y-82683476D01*
X92758169Y-82735114D01*
X92771240Y-82804897D01*
X92744509Y-82870669D01*
X92704055Y-82904027D01*
X92696214Y-82908109D01*
X92691607Y-82910507D01*
X92687474Y-82913610D01*
X92687471Y-82913612D01*
X92551877Y-83015419D01*
X92512965Y-83044635D01*
X92509393Y-83048373D01*
X92382780Y-83180866D01*
X92358629Y-83206138D01*
X92355715Y-83210410D01*
X92355714Y-83210411D01*
X92280681Y-83320405D01*
X92232743Y-83390680D01*
X92138688Y-83593305D01*
X92078989Y-83808570D01*
X92055251Y-84030695D01*
X92055548Y-84035848D01*
X92055548Y-84035851D01*
X92061011Y-84130590D01*
X92068110Y-84253715D01*
X92069247Y-84258761D01*
X92069248Y-84258767D01*
X92089119Y-84346939D01*
X92117222Y-84471639D01*
X92201266Y-84678616D01*
X92317987Y-84869088D01*
X92464250Y-85037938D01*
X92636126Y-85180632D01*
X92662617Y-85196112D01*
X92709445Y-85223476D01*
X92758169Y-85275114D01*
X92771240Y-85344897D01*
X92744509Y-85410669D01*
X92704055Y-85444027D01*
X92691607Y-85450507D01*
X92687474Y-85453610D01*
X92687471Y-85453612D01*
X92517100Y-85581530D01*
X92512965Y-85584635D01*
X92358629Y-85746138D01*
X92232743Y-85930680D01*
X92212041Y-85975279D01*
X92154814Y-86098565D01*
X92138688Y-86133305D01*
X92078989Y-86348570D01*
X92055251Y-86570695D01*
X89008500Y-86570695D01*
X89008500Y-75341045D01*
X89028502Y-75272924D01*
X89082158Y-75226431D01*
X89152432Y-75216327D01*
X89217012Y-75245821D01*
X89246767Y-75283842D01*
X89283938Y-75356794D01*
X89495643Y-75682793D01*
X89740266Y-75984876D01*
X90015124Y-76259734D01*
X90317207Y-76504357D01*
X90643205Y-76716062D01*
X90646139Y-76717557D01*
X90646146Y-76717561D01*
X90961717Y-76878352D01*
X90989547Y-76892532D01*
X91100967Y-76935302D01*
X91329472Y-77023017D01*
X91352438Y-77031833D01*
X91727901Y-77132438D01*
X91918480Y-77162623D01*
X92108576Y-77192732D01*
X92108584Y-77192733D01*
X92111824Y-77193246D01*
X92500000Y-77213589D01*
X92888176Y-77193246D01*
X92891416Y-77192733D01*
X92891424Y-77192732D01*
X93081520Y-77162623D01*
X93272099Y-77132438D01*
X93647562Y-77031833D01*
X93670529Y-77023017D01*
X93899033Y-76935302D01*
X94010453Y-76892532D01*
X94038283Y-76878352D01*
X94353854Y-76717561D01*
X94353861Y-76717557D01*
X94356795Y-76716062D01*
X94682793Y-76504357D01*
X94984876Y-76259734D01*
X95259734Y-75984876D01*
X95504357Y-75682793D01*
X95716062Y-75356794D01*
X95753233Y-75283842D01*
X95801981Y-75232227D01*
X95870896Y-75215161D01*
X95938098Y-75238062D01*
X95982250Y-75293659D01*
X95991500Y-75341045D01*
X95991500Y-76791377D01*
X95991498Y-76792147D01*
X95991024Y-76869721D01*
X95993491Y-76878352D01*
X95999150Y-76898153D01*
X96002728Y-76914915D01*
X96006920Y-76944187D01*
X96010634Y-76952355D01*
X96010634Y-76952356D01*
X96017548Y-76967562D01*
X96023996Y-76985086D01*
X96031051Y-77009771D01*
X96035843Y-77017365D01*
X96035844Y-77017368D01*
X96046830Y-77034780D01*
X96054969Y-77049863D01*
X96067208Y-77076782D01*
X96073069Y-77083584D01*
X96083970Y-77096235D01*
X96095073Y-77111239D01*
X96108776Y-77132958D01*
X96115501Y-77138897D01*
X96115504Y-77138901D01*
X96130938Y-77152532D01*
X96142982Y-77164724D01*
X96156427Y-77180327D01*
X96156430Y-77180329D01*
X96162287Y-77187127D01*
X96169816Y-77192007D01*
X96169817Y-77192008D01*
X96183835Y-77201094D01*
X96198709Y-77212385D01*
X96211217Y-77223431D01*
X96217951Y-77229378D01*
X96244711Y-77241942D01*
X96259691Y-77250263D01*
X96276983Y-77261471D01*
X96276988Y-77261473D01*
X96284515Y-77266352D01*
X96293108Y-77268922D01*
X96293113Y-77268924D01*
X96309120Y-77273711D01*
X96326564Y-77280372D01*
X96341676Y-77287467D01*
X96341678Y-77287468D01*
X96349800Y-77291281D01*
X96358667Y-77292662D01*
X96358668Y-77292662D01*
X96361353Y-77293080D01*
X96379017Y-77295830D01*
X96395732Y-77299613D01*
X96415466Y-77305515D01*
X96415472Y-77305516D01*
X96424066Y-77308086D01*
X96433037Y-77308141D01*
X96433038Y-77308141D01*
X96443097Y-77308202D01*
X96458506Y-77308296D01*
X96459289Y-77308329D01*
X96460386Y-77308500D01*
X96491377Y-77308500D01*
X96492147Y-77308502D01*
X96565785Y-77308952D01*
X96565786Y-77308952D01*
X96569721Y-77308976D01*
X96571065Y-77308592D01*
X96572410Y-77308500D01*
X98694367Y-77308500D01*
X98762488Y-77328502D01*
X98808981Y-77382158D01*
X98819085Y-77452432D01*
X98789591Y-77517012D01*
X98783544Y-77523514D01*
X98778071Y-77528997D01*
X98774231Y-77535227D01*
X98774230Y-77535228D01*
X98772143Y-77538614D01*
X98770114Y-77540441D01*
X98769693Y-77540973D01*
X98769602Y-77540901D01*
X98719372Y-77586108D01*
X98664882Y-77598500D01*
X95915950Y-77598500D01*
X95847829Y-77578498D01*
X95822050Y-77554147D01*
X95821040Y-77555056D01*
X95697675Y-77418045D01*
X95697674Y-77418044D01*
X95693253Y-77413134D01*
X95556520Y-77313791D01*
X95544094Y-77304763D01*
X95544093Y-77304762D01*
X95538752Y-77300882D01*
X95532724Y-77298198D01*
X95532722Y-77298197D01*
X95370319Y-77225891D01*
X95370318Y-77225891D01*
X95364288Y-77223206D01*
X95260260Y-77201094D01*
X95183944Y-77184872D01*
X95183939Y-77184872D01*
X95177487Y-77183500D01*
X94986513Y-77183500D01*
X94980061Y-77184872D01*
X94980056Y-77184872D01*
X94903740Y-77201094D01*
X94799712Y-77223206D01*
X94793682Y-77225891D01*
X94793681Y-77225891D01*
X94631278Y-77298197D01*
X94631276Y-77298198D01*
X94625248Y-77300882D01*
X94619907Y-77304762D01*
X94619906Y-77304763D01*
X94607480Y-77313791D01*
X94470747Y-77413134D01*
X94466326Y-77418044D01*
X94466325Y-77418045D01*
X94361742Y-77534197D01*
X94342960Y-77555056D01*
X94247473Y-77720444D01*
X94188458Y-77902072D01*
X94168496Y-78092000D01*
X94188458Y-78281928D01*
X94247473Y-78463556D01*
X94342960Y-78628944D01*
X94470747Y-78770866D01*
X94625248Y-78883118D01*
X94631276Y-78885802D01*
X94631278Y-78885803D01*
X94793681Y-78958109D01*
X94799712Y-78960794D01*
X94893112Y-78980647D01*
X94980056Y-78999128D01*
X94980061Y-78999128D01*
X94986513Y-79000500D01*
X95177487Y-79000500D01*
X95183939Y-78999128D01*
X95183944Y-78999128D01*
X95270888Y-78980647D01*
X95364288Y-78960794D01*
X95370319Y-78958109D01*
X95532724Y-78885802D01*
X95532725Y-78885801D01*
X95538752Y-78883118D01*
X95540419Y-78881907D01*
X95601649Y-78865500D01*
X98665036Y-78865500D01*
X98733157Y-78885502D01*
X98772179Y-78925196D01*
X98778884Y-78936031D01*
X98784066Y-78941204D01*
X98896816Y-79053758D01*
X98896821Y-79053762D01*
X98901997Y-79058929D01*
X99050080Y-79150209D01*
X99215191Y-79204974D01*
X99222027Y-79205674D01*
X99222030Y-79205675D01*
X99273526Y-79210951D01*
X99317928Y-79215500D01*
X99917072Y-79215500D01*
X99920318Y-79215163D01*
X99920322Y-79215163D01*
X100014235Y-79205419D01*
X100014239Y-79205418D01*
X100021093Y-79204707D01*
X100027629Y-79202526D01*
X100027631Y-79202526D01*
X100160395Y-79158232D01*
X100186107Y-79149654D01*
X100334031Y-79058116D01*
X100340342Y-79051794D01*
X100440747Y-78951214D01*
X100503030Y-78917135D01*
X100573850Y-78922138D01*
X100618937Y-78951059D01*
X100721812Y-79053754D01*
X100721817Y-79053758D01*
X100726997Y-79058929D01*
X100875080Y-79150209D01*
X101040191Y-79204974D01*
X101047027Y-79205674D01*
X101047030Y-79205675D01*
X101098526Y-79210951D01*
X101142928Y-79215500D01*
X101477906Y-79215500D01*
X101546027Y-79235502D01*
X101567001Y-79252405D01*
X103348706Y-81034110D01*
X103382732Y-81096422D01*
X103377667Y-81167237D01*
X103335120Y-81224073D01*
X103268600Y-81248884D01*
X103199226Y-81233793D01*
X103181518Y-81222086D01*
X103179183Y-81220242D01*
X103174003Y-81215071D01*
X103096402Y-81167237D01*
X103032150Y-81127631D01*
X103032148Y-81127630D01*
X103025920Y-81123791D01*
X102860809Y-81069026D01*
X102853973Y-81068326D01*
X102853970Y-81068325D01*
X102802474Y-81063049D01*
X102758072Y-81058500D01*
X102158928Y-81058500D01*
X102155682Y-81058837D01*
X102155678Y-81058837D01*
X102061765Y-81068581D01*
X102061761Y-81068582D01*
X102054907Y-81069293D01*
X102048371Y-81071474D01*
X102048369Y-81071474D01*
X101973591Y-81096422D01*
X101889893Y-81124346D01*
X101741969Y-81215884D01*
X101736796Y-81221066D01*
X101635253Y-81322786D01*
X101572970Y-81356865D01*
X101502150Y-81351862D01*
X101457063Y-81322941D01*
X101354188Y-81220246D01*
X101354183Y-81220242D01*
X101349003Y-81215071D01*
X101278860Y-81171834D01*
X101207150Y-81127631D01*
X101207148Y-81127630D01*
X101200920Y-81123791D01*
X101035809Y-81069026D01*
X101028973Y-81068326D01*
X101028970Y-81068325D01*
X100977474Y-81063049D01*
X100933072Y-81058500D01*
X100333928Y-81058500D01*
X100330682Y-81058837D01*
X100330678Y-81058837D01*
X100236765Y-81068581D01*
X100236761Y-81068582D01*
X100229907Y-81069293D01*
X100223371Y-81071474D01*
X100223369Y-81071474D01*
X100148591Y-81096422D01*
X100064893Y-81124346D01*
X99916969Y-81215884D01*
X99911796Y-81221066D01*
X99911791Y-81221070D01*
X99888645Y-81244256D01*
X99826363Y-81278335D01*
X99755543Y-81273332D01*
X99725411Y-81257173D01*
X99722095Y-81254764D01*
X99722096Y-81254764D01*
X99716752Y-81250882D01*
X99710724Y-81248198D01*
X99710722Y-81248197D01*
X99548319Y-81175891D01*
X99548318Y-81175891D01*
X99542288Y-81173206D01*
X99448888Y-81153353D01*
X99361944Y-81134872D01*
X99361939Y-81134872D01*
X99355487Y-81133500D01*
X99164513Y-81133500D01*
X99158061Y-81134872D01*
X99158056Y-81134872D01*
X99071112Y-81153353D01*
X98977712Y-81173206D01*
X98971682Y-81175891D01*
X98971681Y-81175891D01*
X98809278Y-81248197D01*
X98809276Y-81248198D01*
X98803248Y-81250882D01*
X98797907Y-81254762D01*
X98797906Y-81254763D01*
X98772348Y-81273332D01*
X98648747Y-81363134D01*
X98520960Y-81505056D01*
X98425473Y-81670444D01*
X98366458Y-81852072D01*
X98365768Y-81858633D01*
X98365768Y-81858635D01*
X98347710Y-82030453D01*
X98346496Y-82042000D01*
X98347186Y-82048565D01*
X98357114Y-82143020D01*
X98366458Y-82231928D01*
X98425473Y-82413556D01*
X98428776Y-82419278D01*
X98428777Y-82419279D01*
X98462686Y-82478010D01*
X98520960Y-82578944D01*
X98525378Y-82583851D01*
X98525379Y-82583852D01*
X98639497Y-82710593D01*
X98648747Y-82720866D01*
X98727915Y-82778385D01*
X98793399Y-82825962D01*
X98803248Y-82833118D01*
X98809276Y-82835802D01*
X98809278Y-82835803D01*
X98962513Y-82904027D01*
X98977712Y-82910794D01*
X99061473Y-82928598D01*
X99158056Y-82949128D01*
X99158061Y-82949128D01*
X99164513Y-82950500D01*
X99355487Y-82950500D01*
X99361939Y-82949128D01*
X99361944Y-82949128D01*
X99458527Y-82928598D01*
X99542288Y-82910794D01*
X99655570Y-82860358D01*
X99710724Y-82835802D01*
X99710725Y-82835801D01*
X99716752Y-82833118D01*
X99722094Y-82829237D01*
X99722096Y-82829236D01*
X99725478Y-82826779D01*
X99727766Y-82825962D01*
X99727814Y-82825935D01*
X99727819Y-82825944D01*
X99792345Y-82802920D01*
X99861497Y-82818999D01*
X99888557Y-82839540D01*
X99917997Y-82868929D01*
X99924227Y-82872769D01*
X99924228Y-82872770D01*
X100014798Y-82928598D01*
X100066080Y-82960209D01*
X100231191Y-83014974D01*
X100238027Y-83015674D01*
X100238030Y-83015675D01*
X100289526Y-83020951D01*
X100333928Y-83025500D01*
X100933072Y-83025500D01*
X100936318Y-83025163D01*
X100936322Y-83025163D01*
X101030235Y-83015419D01*
X101030239Y-83015418D01*
X101037093Y-83014707D01*
X101043629Y-83012526D01*
X101043631Y-83012526D01*
X101176686Y-82968135D01*
X101202107Y-82959654D01*
X101350031Y-82868116D01*
X101355204Y-82862934D01*
X101456747Y-82761214D01*
X101519030Y-82727135D01*
X101589850Y-82732138D01*
X101634937Y-82761059D01*
X101737812Y-82863754D01*
X101737817Y-82863758D01*
X101742997Y-82868929D01*
X101749227Y-82872769D01*
X101749228Y-82872770D01*
X101839798Y-82928598D01*
X101891080Y-82960209D01*
X102056191Y-83014974D01*
X102063027Y-83015674D01*
X102063030Y-83015675D01*
X102114526Y-83020951D01*
X102158928Y-83025500D01*
X102758072Y-83025500D01*
X102761318Y-83025163D01*
X102761322Y-83025163D01*
X102855235Y-83015419D01*
X102855239Y-83015418D01*
X102862093Y-83014707D01*
X102868629Y-83012526D01*
X102868631Y-83012526D01*
X103001687Y-82968135D01*
X103072637Y-82965551D01*
X103130658Y-82998564D01*
X103415595Y-83283501D01*
X103449621Y-83345813D01*
X103452500Y-83372596D01*
X103452500Y-84895476D01*
X103432498Y-84963597D01*
X103420142Y-84979779D01*
X103346960Y-85061056D01*
X103251473Y-85226444D01*
X103192458Y-85408072D01*
X103191768Y-85414633D01*
X103191768Y-85414635D01*
X103176752Y-85557505D01*
X103172496Y-85598000D01*
X103173186Y-85604565D01*
X103190412Y-85768457D01*
X103192458Y-85787928D01*
X103251473Y-85969556D01*
X103346960Y-86134944D01*
X103474747Y-86276866D01*
X103629248Y-86389118D01*
X103635276Y-86391802D01*
X103635278Y-86391803D01*
X103796439Y-86463556D01*
X103803712Y-86466794D01*
X103897112Y-86486647D01*
X103984056Y-86505128D01*
X103984061Y-86505128D01*
X103990513Y-86506500D01*
X104045172Y-86506500D01*
X104113293Y-86526502D01*
X104131424Y-86540649D01*
X104151666Y-86559657D01*
X104154509Y-86562413D01*
X104174230Y-86582134D01*
X104177425Y-86584612D01*
X104186447Y-86592318D01*
X104218679Y-86622586D01*
X104225628Y-86626406D01*
X104236432Y-86632346D01*
X104252956Y-86643199D01*
X104268959Y-86655613D01*
X104309543Y-86673176D01*
X104320173Y-86678383D01*
X104358940Y-86699695D01*
X104366617Y-86701666D01*
X104366622Y-86701668D01*
X104378558Y-86704732D01*
X104397266Y-86711137D01*
X104415855Y-86719181D01*
X104423680Y-86720420D01*
X104423682Y-86720421D01*
X104459519Y-86726097D01*
X104471140Y-86728504D01*
X104506289Y-86737528D01*
X104513970Y-86739500D01*
X104534231Y-86739500D01*
X104553940Y-86741051D01*
X104573943Y-86744219D01*
X104581835Y-86743473D01*
X104587062Y-86742979D01*
X104617954Y-86740059D01*
X104629811Y-86739500D01*
X106793036Y-86739500D01*
X106861157Y-86759502D01*
X106900179Y-86799196D01*
X106906884Y-86810031D01*
X106912066Y-86815204D01*
X107024816Y-86927758D01*
X107024821Y-86927762D01*
X107029997Y-86932929D01*
X107036227Y-86936769D01*
X107036228Y-86936770D01*
X107157688Y-87011639D01*
X107178080Y-87024209D01*
X107343191Y-87078974D01*
X107350027Y-87079674D01*
X107350030Y-87079675D01*
X107401526Y-87084951D01*
X107445928Y-87089500D01*
X108045072Y-87089500D01*
X108048318Y-87089163D01*
X108048322Y-87089163D01*
X108142235Y-87079419D01*
X108142239Y-87079418D01*
X108149093Y-87078707D01*
X108155629Y-87076526D01*
X108155631Y-87076526D01*
X108288395Y-87032232D01*
X108314107Y-87023654D01*
X108462031Y-86932116D01*
X108508263Y-86885803D01*
X108568747Y-86825214D01*
X108631030Y-86791135D01*
X108701850Y-86796138D01*
X108746937Y-86825059D01*
X108849812Y-86927754D01*
X108849817Y-86927758D01*
X108854997Y-86932929D01*
X108861227Y-86936769D01*
X108861228Y-86936770D01*
X108982688Y-87011639D01*
X109003080Y-87024209D01*
X109168191Y-87078974D01*
X109175027Y-87079674D01*
X109175030Y-87079675D01*
X109226526Y-87084951D01*
X109270928Y-87089500D01*
X109870072Y-87089500D01*
X109873318Y-87089163D01*
X109873322Y-87089163D01*
X109967235Y-87079419D01*
X109967239Y-87079418D01*
X109974093Y-87078707D01*
X109980629Y-87076526D01*
X109980631Y-87076526D01*
X110113395Y-87032232D01*
X110139107Y-87023654D01*
X110287031Y-86932116D01*
X110333263Y-86885803D01*
X110404758Y-86814184D01*
X110404762Y-86814179D01*
X110409929Y-86809003D01*
X110415857Y-86799386D01*
X110417886Y-86797559D01*
X110418307Y-86797027D01*
X110418398Y-86797099D01*
X110468628Y-86751892D01*
X110523118Y-86739500D01*
X113946077Y-86739500D01*
X114014198Y-86759502D01*
X114026414Y-86768830D01*
X114028247Y-86770866D01*
X114182748Y-86883118D01*
X114188776Y-86885802D01*
X114188778Y-86885803D01*
X114301456Y-86935970D01*
X114357212Y-86960794D01*
X114450612Y-86980647D01*
X114537556Y-86999128D01*
X114537561Y-86999128D01*
X114544013Y-87000500D01*
X114734987Y-87000500D01*
X114741439Y-86999128D01*
X114741444Y-86999128D01*
X114828388Y-86980647D01*
X114921788Y-86960794D01*
X114977544Y-86935970D01*
X115090222Y-86885803D01*
X115090224Y-86885802D01*
X115096252Y-86883118D01*
X115250753Y-86770866D01*
X115378540Y-86628944D01*
X115474027Y-86463556D01*
X115533042Y-86281928D01*
X115548491Y-86134944D01*
X115552314Y-86098565D01*
X115553004Y-86092000D01*
X115533042Y-85902072D01*
X115474027Y-85720444D01*
X115419788Y-85626499D01*
X115403050Y-85557505D01*
X115426270Y-85490413D01*
X115482077Y-85446526D01*
X115528907Y-85437500D01*
X116668134Y-85437500D01*
X116730316Y-85430745D01*
X116866705Y-85379615D01*
X116983261Y-85292261D01*
X117070615Y-85175705D01*
X117121745Y-85039316D01*
X117128500Y-84977134D01*
X117128500Y-83180866D01*
X117121745Y-83118684D01*
X117070615Y-82982295D01*
X116983261Y-82865739D01*
X116866705Y-82778385D01*
X116827210Y-82763579D01*
X116748203Y-82733960D01*
X116691439Y-82691318D01*
X116666739Y-82624756D01*
X116681947Y-82555408D01*
X116703493Y-82526727D01*
X116732383Y-82497938D01*
X116808096Y-82422489D01*
X116821891Y-82403292D01*
X116935435Y-82245277D01*
X116938453Y-82241077D01*
X116945867Y-82226077D01*
X117035136Y-82045453D01*
X117035137Y-82045451D01*
X117037430Y-82040811D01*
X117072131Y-81926596D01*
X117100865Y-81832023D01*
X117100865Y-81832021D01*
X117102370Y-81827069D01*
X117131529Y-81605590D01*
X117131611Y-81602240D01*
X117133074Y-81542365D01*
X117133074Y-81542361D01*
X117133156Y-81539000D01*
X117114852Y-81316361D01*
X117060431Y-81099702D01*
X116971354Y-80894840D01*
X116850014Y-80707277D01*
X116699670Y-80542051D01*
X116695619Y-80538852D01*
X116695615Y-80538848D01*
X116528414Y-80406800D01*
X116528410Y-80406798D01*
X116524359Y-80403598D01*
X116497187Y-80388598D01*
X116470039Y-80373612D01*
X116328789Y-80295638D01*
X116323920Y-80293914D01*
X116323916Y-80293912D01*
X116123087Y-80222795D01*
X116123083Y-80222794D01*
X116118212Y-80221069D01*
X116113119Y-80220162D01*
X116113116Y-80220161D01*
X115931177Y-80187753D01*
X115867619Y-80156115D01*
X115831256Y-80095138D01*
X115833633Y-80024181D01*
X115879212Y-79961770D01*
X115901858Y-79945316D01*
X115927253Y-79926866D01*
X115931668Y-79921963D01*
X115936580Y-79917540D01*
X115937705Y-79918789D01*
X115991014Y-79885949D01*
X116024200Y-79881500D01*
X117147800Y-79881500D01*
X117215921Y-79901502D01*
X117235147Y-79917843D01*
X117235420Y-79917540D01*
X117240332Y-79921963D01*
X117244747Y-79926866D01*
X117399248Y-80039118D01*
X117405276Y-80041802D01*
X117405278Y-80041803D01*
X117567681Y-80114109D01*
X117573712Y-80116794D01*
X117667113Y-80136647D01*
X117754056Y-80155128D01*
X117754061Y-80155128D01*
X117760513Y-80156500D01*
X117951487Y-80156500D01*
X117957939Y-80155128D01*
X117957944Y-80155128D01*
X118044887Y-80136647D01*
X118138288Y-80116794D01*
X118144319Y-80114109D01*
X118306722Y-80041803D01*
X118306724Y-80041802D01*
X118312752Y-80039118D01*
X118467253Y-79926866D01*
X118595040Y-79784944D01*
X118690527Y-79619556D01*
X118749542Y-79437928D01*
X118769504Y-79248000D01*
X118749542Y-79058072D01*
X118690527Y-78876444D01*
X118684209Y-78865500D01*
X118598341Y-78716774D01*
X118595040Y-78711056D01*
X118467253Y-78569134D01*
X118312752Y-78456882D01*
X118306724Y-78454198D01*
X118306722Y-78454197D01*
X118144319Y-78381891D01*
X118144318Y-78381891D01*
X118138288Y-78379206D01*
X118044888Y-78359353D01*
X117957944Y-78340872D01*
X117957939Y-78340872D01*
X117951487Y-78339500D01*
X117760513Y-78339500D01*
X117754061Y-78340872D01*
X117754056Y-78340872D01*
X117667112Y-78359353D01*
X117573712Y-78379206D01*
X117567682Y-78381891D01*
X117567681Y-78381891D01*
X117405278Y-78454197D01*
X117405276Y-78454198D01*
X117399248Y-78456882D01*
X117244747Y-78569134D01*
X117240332Y-78574037D01*
X117235420Y-78578460D01*
X117234295Y-78577211D01*
X117180986Y-78610051D01*
X117147800Y-78614500D01*
X116024200Y-78614500D01*
X115956079Y-78594498D01*
X115936853Y-78578157D01*
X115936580Y-78578460D01*
X115931668Y-78574037D01*
X115927253Y-78569134D01*
X115772752Y-78456882D01*
X115766724Y-78454198D01*
X115766722Y-78454197D01*
X115604319Y-78381891D01*
X115604318Y-78381891D01*
X115598288Y-78379206D01*
X115504888Y-78359353D01*
X115417944Y-78340872D01*
X115417939Y-78340872D01*
X115411487Y-78339500D01*
X115220513Y-78339500D01*
X115214061Y-78340872D01*
X115214056Y-78340872D01*
X115127112Y-78359353D01*
X115033712Y-78379206D01*
X115027682Y-78381891D01*
X115027681Y-78381891D01*
X114865278Y-78454197D01*
X114865276Y-78454198D01*
X114859248Y-78456882D01*
X114704747Y-78569134D01*
X114576960Y-78711056D01*
X114573659Y-78716774D01*
X114487792Y-78865500D01*
X114481473Y-78876444D01*
X114422458Y-79058072D01*
X114402496Y-79248000D01*
X114422458Y-79437928D01*
X114481473Y-79619556D01*
X114576960Y-79784944D01*
X114704747Y-79926866D01*
X114859248Y-80039118D01*
X114865276Y-80041802D01*
X114865278Y-80041803D01*
X115027681Y-80114109D01*
X115033712Y-80116794D01*
X115061738Y-80122751D01*
X115064000Y-80123232D01*
X115126474Y-80156961D01*
X115160795Y-80219110D01*
X115156067Y-80289949D01*
X115113791Y-80346987D01*
X115095994Y-80358236D01*
X115043607Y-80385507D01*
X115039474Y-80388610D01*
X115039471Y-80388612D01*
X114869100Y-80516530D01*
X114864965Y-80519635D01*
X114861393Y-80523373D01*
X114728535Y-80662401D01*
X114710629Y-80681138D01*
X114707715Y-80685410D01*
X114707714Y-80685411D01*
X114646184Y-80775611D01*
X114584743Y-80865680D01*
X114569003Y-80899590D01*
X114495334Y-81058297D01*
X114490688Y-81068305D01*
X114430989Y-81283570D01*
X114407251Y-81505695D01*
X114407548Y-81510848D01*
X114407548Y-81510851D01*
X114418947Y-81708547D01*
X114420110Y-81728715D01*
X114421247Y-81733761D01*
X114421248Y-81733767D01*
X114437739Y-81806939D01*
X114469222Y-81946639D01*
X114553266Y-82153616D01*
X114669987Y-82344088D01*
X114816250Y-82512938D01*
X114820230Y-82516242D01*
X114824981Y-82520187D01*
X114864616Y-82579090D01*
X114866113Y-82650071D01*
X114828997Y-82710593D01*
X114788725Y-82735112D01*
X114712790Y-82763579D01*
X114673295Y-82778385D01*
X114556739Y-82865739D01*
X114469385Y-82982295D01*
X114418255Y-83118684D01*
X114411500Y-83180866D01*
X114411500Y-84977134D01*
X114418255Y-85039316D01*
X114421029Y-85046715D01*
X114427078Y-85062851D01*
X114432261Y-85133658D01*
X114398340Y-85196027D01*
X114356538Y-85221692D01*
X114357212Y-85223206D01*
X114188778Y-85298197D01*
X114188776Y-85298198D01*
X114182748Y-85300882D01*
X114177407Y-85304762D01*
X114177406Y-85304763D01*
X114064512Y-85386786D01*
X114028247Y-85413134D01*
X114012332Y-85430810D01*
X113951887Y-85468049D01*
X113918695Y-85472500D01*
X110522964Y-85472500D01*
X110454843Y-85452498D01*
X110415821Y-85412804D01*
X110409116Y-85401969D01*
X110403934Y-85396796D01*
X110291184Y-85284242D01*
X110291179Y-85284238D01*
X110286003Y-85279071D01*
X110195374Y-85223206D01*
X110144150Y-85191631D01*
X110144148Y-85191630D01*
X110137920Y-85187791D01*
X109972809Y-85133026D01*
X109965973Y-85132326D01*
X109965970Y-85132325D01*
X109914474Y-85127049D01*
X109870072Y-85122500D01*
X109270928Y-85122500D01*
X109267682Y-85122837D01*
X109267678Y-85122837D01*
X109173765Y-85132581D01*
X109173761Y-85132582D01*
X109166907Y-85133293D01*
X109160371Y-85135474D01*
X109160369Y-85135474D01*
X109039783Y-85175705D01*
X109001893Y-85188346D01*
X108853969Y-85279884D01*
X108848796Y-85285066D01*
X108747253Y-85386786D01*
X108684970Y-85420865D01*
X108614150Y-85415862D01*
X108569063Y-85386941D01*
X108466188Y-85284246D01*
X108466183Y-85284242D01*
X108461003Y-85279071D01*
X108370374Y-85223206D01*
X108319150Y-85191631D01*
X108319148Y-85191630D01*
X108312920Y-85187791D01*
X108147809Y-85133026D01*
X108140973Y-85132326D01*
X108140970Y-85132325D01*
X108089474Y-85127049D01*
X108045072Y-85122500D01*
X107445928Y-85122500D01*
X107442682Y-85122837D01*
X107442678Y-85122837D01*
X107348765Y-85132581D01*
X107348761Y-85132582D01*
X107341907Y-85133293D01*
X107335371Y-85135474D01*
X107335369Y-85135474D01*
X107214783Y-85175705D01*
X107176893Y-85188346D01*
X107028969Y-85279884D01*
X107023796Y-85285066D01*
X106911242Y-85397816D01*
X106911238Y-85397821D01*
X106906071Y-85402997D01*
X106902231Y-85409227D01*
X106902230Y-85409228D01*
X106900143Y-85412614D01*
X106898114Y-85414441D01*
X106897693Y-85414973D01*
X106897602Y-85414901D01*
X106847372Y-85460108D01*
X106792882Y-85472500D01*
X105092020Y-85472500D01*
X105023899Y-85452498D01*
X104977406Y-85398842D01*
X104972187Y-85385436D01*
X104952849Y-85325921D01*
X104920527Y-85226444D01*
X104825040Y-85061056D01*
X104751863Y-84979785D01*
X104721147Y-84915779D01*
X104719500Y-84895476D01*
X104719500Y-83136767D01*
X104720027Y-83125584D01*
X104721702Y-83118091D01*
X104719562Y-83050000D01*
X104719500Y-83046043D01*
X104719500Y-80954268D01*
X104720027Y-80943085D01*
X104721702Y-80935592D01*
X104720571Y-80899590D01*
X104719562Y-80867502D01*
X104719500Y-80863544D01*
X104719500Y-80835644D01*
X104718996Y-80831653D01*
X104718063Y-80819811D01*
X104716923Y-80783536D01*
X104716674Y-80775611D01*
X104711021Y-80756152D01*
X104707012Y-80736793D01*
X104706846Y-80735483D01*
X104704474Y-80716703D01*
X104701558Y-80709337D01*
X104701556Y-80709331D01*
X104688200Y-80675598D01*
X104684355Y-80664368D01*
X104674230Y-80629517D01*
X104674230Y-80629516D01*
X104672019Y-80621907D01*
X104661705Y-80604466D01*
X104653008Y-80586713D01*
X104648472Y-80575258D01*
X104645552Y-80567883D01*
X104619563Y-80532112D01*
X104613047Y-80522192D01*
X104611535Y-80519635D01*
X104590542Y-80484138D01*
X104576221Y-80469817D01*
X104563380Y-80454783D01*
X104556131Y-80444806D01*
X104551472Y-80438393D01*
X104517395Y-80410202D01*
X104508616Y-80402212D01*
X102475405Y-78369000D01*
X102441379Y-78306688D01*
X102438500Y-78279905D01*
X102438500Y-77944928D01*
X102438163Y-77941678D01*
X102428419Y-77847765D01*
X102428418Y-77847761D01*
X102427707Y-77840907D01*
X102372654Y-77675893D01*
X102281116Y-77527969D01*
X102275934Y-77522796D01*
X102271387Y-77517059D01*
X102272648Y-77516060D01*
X102242734Y-77461398D01*
X102247733Y-77390577D01*
X102290227Y-77333702D01*
X102356724Y-77308829D01*
X102365830Y-77308500D01*
X112691377Y-77308500D01*
X112692148Y-77308502D01*
X112769721Y-77308976D01*
X112798152Y-77300850D01*
X112814915Y-77297272D01*
X112815753Y-77297152D01*
X112844187Y-77293080D01*
X112867564Y-77282451D01*
X112885087Y-77276004D01*
X112909771Y-77268949D01*
X112917365Y-77264157D01*
X112917368Y-77264156D01*
X112934780Y-77253170D01*
X112949865Y-77245030D01*
X112976782Y-77232792D01*
X112996235Y-77216030D01*
X113011239Y-77204927D01*
X113032958Y-77191224D01*
X113038897Y-77184499D01*
X113038901Y-77184496D01*
X113052532Y-77169062D01*
X113064724Y-77157018D01*
X113080327Y-77143573D01*
X113080329Y-77143570D01*
X113087127Y-77137713D01*
X113101094Y-77116165D01*
X113112385Y-77101291D01*
X113123431Y-77088783D01*
X113123432Y-77088782D01*
X113129378Y-77082049D01*
X113141943Y-77055287D01*
X113150263Y-77040309D01*
X113161471Y-77023017D01*
X113161473Y-77023012D01*
X113166352Y-77015485D01*
X113168922Y-77006892D01*
X113168924Y-77006887D01*
X113173711Y-76990880D01*
X113180372Y-76973436D01*
X113187467Y-76958324D01*
X113187468Y-76958322D01*
X113191281Y-76950200D01*
X113195830Y-76920983D01*
X113199613Y-76904268D01*
X113205515Y-76884534D01*
X113205516Y-76884528D01*
X113208086Y-76875934D01*
X113208296Y-76841494D01*
X113208329Y-76840711D01*
X113208500Y-76839614D01*
X113208500Y-76808623D01*
X113208502Y-76807853D01*
X113208952Y-76734215D01*
X113208952Y-76734214D01*
X113208976Y-76730279D01*
X113208592Y-76728935D01*
X113208500Y-76727590D01*
X113208500Y-70875465D01*
X113231740Y-70802552D01*
X113350409Y-70635306D01*
X113359218Y-70624260D01*
X113573965Y-70383957D01*
X113583957Y-70373965D01*
X113824260Y-70159218D01*
X113835306Y-70150409D01*
X113960043Y-70061902D01*
X114002553Y-70031740D01*
X114075465Y-70008500D01*
X115658955Y-70008500D01*
X115727076Y-70028502D01*
G37*
%TD.AperFunction*%
M02*
