%TF.GenerationSoftware,KiCad,Pcbnew,(6.0.5)*%
%TF.CreationDate,2023-06-01T20:28:18+03:00*%
%TF.ProjectId,led-controller,6c65642d-636f-46e7-9472-6f6c6c65722e,rev?*%
%TF.SameCoordinates,Original*%
%TF.FileFunction,Legend,Bot*%
%TF.FilePolarity,Positive*%
%FSLAX46Y46*%
G04 Gerber Fmt 4.6, Leading zero omitted, Abs format (unit mm)*
G04 Created by KiCad (PCBNEW (6.0.5)) date 2023-06-01 20:28:18*
%MOMM*%
%LPD*%
G01*
G04 APERTURE LIST*
G04 Aperture macros list*
%AMRoundRect*
0 Rectangle with rounded corners*
0 $1 Rounding radius*
0 $2 $3 $4 $5 $6 $7 $8 $9 X,Y pos of 4 corners*
0 Add a 4 corners polygon primitive as box body*
4,1,4,$2,$3,$4,$5,$6,$7,$8,$9,$2,$3,0*
0 Add four circle primitives for the rounded corners*
1,1,$1+$1,$2,$3*
1,1,$1+$1,$4,$5*
1,1,$1+$1,$6,$7*
1,1,$1+$1,$8,$9*
0 Add four rect primitives between the rounded corners*
20,1,$1+$1,$2,$3,$4,$5,0*
20,1,$1+$1,$4,$5,$6,$7,0*
20,1,$1+$1,$6,$7,$8,$9,0*
20,1,$1+$1,$8,$9,$2,$3,0*%
G04 Aperture macros list end*
%ADD10C,0.150000*%
%ADD11C,0.120000*%
%ADD12R,1.700000X1.700000*%
%ADD13O,1.700000X1.700000*%
%ADD14O,3.000000X3.500000*%
%ADD15R,1.600000X1.600000*%
%ADD16C,1.600000*%
%ADD17R,3.000000X3.000000*%
%ADD18C,3.000000*%
%ADD19C,0.800000*%
%ADD20C,6.400000*%
%ADD21RoundRect,0.237500X-0.237500X0.250000X-0.237500X-0.250000X0.237500X-0.250000X0.237500X0.250000X0*%
%ADD22RoundRect,0.237500X-0.250000X-0.237500X0.250000X-0.237500X0.250000X0.237500X-0.250000X0.237500X0*%
%ADD23RoundRect,0.237500X0.250000X0.237500X-0.250000X0.237500X-0.250000X-0.237500X0.250000X-0.237500X0*%
%ADD24RoundRect,0.237500X-0.300000X-0.237500X0.300000X-0.237500X0.300000X0.237500X-0.300000X0.237500X0*%
G04 APERTURE END LIST*
D10*
X107988380Y-89749333D02*
X107512190Y-89416000D01*
X107988380Y-89177904D02*
X106988380Y-89177904D01*
X106988380Y-89558857D01*
X107036000Y-89654095D01*
X107083619Y-89701714D01*
X107178857Y-89749333D01*
X107321714Y-89749333D01*
X107416952Y-89701714D01*
X107464571Y-89654095D01*
X107512190Y-89558857D01*
X107512190Y-89177904D01*
X106988380Y-90606476D02*
X106988380Y-90416000D01*
X107036000Y-90320761D01*
X107083619Y-90273142D01*
X107226476Y-90177904D01*
X107416952Y-90130285D01*
X107797904Y-90130285D01*
X107893142Y-90177904D01*
X107940761Y-90225523D01*
X107988380Y-90320761D01*
X107988380Y-90511238D01*
X107940761Y-90606476D01*
X107893142Y-90654095D01*
X107797904Y-90701714D01*
X107559809Y-90701714D01*
X107464571Y-90654095D01*
X107416952Y-90606476D01*
X107369333Y-90511238D01*
X107369333Y-90320761D01*
X107416952Y-90225523D01*
X107464571Y-90177904D01*
X107559809Y-90130285D01*
X100696666Y-80114380D02*
X101030000Y-79638190D01*
X101268095Y-80114380D02*
X101268095Y-79114380D01*
X100887142Y-79114380D01*
X100791904Y-79162000D01*
X100744285Y-79209619D01*
X100696666Y-79304857D01*
X100696666Y-79447714D01*
X100744285Y-79542952D01*
X100791904Y-79590571D01*
X100887142Y-79638190D01*
X101268095Y-79638190D01*
X100315714Y-79209619D02*
X100268095Y-79162000D01*
X100172857Y-79114380D01*
X99934761Y-79114380D01*
X99839523Y-79162000D01*
X99791904Y-79209619D01*
X99744285Y-79304857D01*
X99744285Y-79400095D01*
X99791904Y-79542952D01*
X100363333Y-80114380D01*
X99744285Y-80114380D01*
X101712666Y-83924380D02*
X102046000Y-83448190D01*
X102284095Y-83924380D02*
X102284095Y-82924380D01*
X101903142Y-82924380D01*
X101807904Y-82972000D01*
X101760285Y-83019619D01*
X101712666Y-83114857D01*
X101712666Y-83257714D01*
X101760285Y-83352952D01*
X101807904Y-83400571D01*
X101903142Y-83448190D01*
X102284095Y-83448190D01*
X100760285Y-83924380D02*
X101331714Y-83924380D01*
X101046000Y-83924380D02*
X101046000Y-82924380D01*
X101141238Y-83067238D01*
X101236476Y-83162476D01*
X101331714Y-83210095D01*
X108824666Y-85128380D02*
X109158000Y-84652190D01*
X109396095Y-85128380D02*
X109396095Y-84128380D01*
X109015142Y-84128380D01*
X108919904Y-84176000D01*
X108872285Y-84223619D01*
X108824666Y-84318857D01*
X108824666Y-84461714D01*
X108872285Y-84556952D01*
X108919904Y-84604571D01*
X109015142Y-84652190D01*
X109396095Y-84652190D01*
X107967523Y-84461714D02*
X107967523Y-85128380D01*
X108205619Y-84080761D02*
X108443714Y-84795047D01*
X107824666Y-84795047D01*
X93431166Y-101355142D02*
X93478785Y-101402761D01*
X93621642Y-101450380D01*
X93716880Y-101450380D01*
X93859738Y-101402761D01*
X93954976Y-101307523D01*
X94002595Y-101212285D01*
X94050214Y-101021809D01*
X94050214Y-100878952D01*
X94002595Y-100688476D01*
X93954976Y-100593238D01*
X93859738Y-100498000D01*
X93716880Y-100450380D01*
X93621642Y-100450380D01*
X93478785Y-100498000D01*
X93431166Y-100545619D01*
X92574023Y-100783714D02*
X92574023Y-101450380D01*
X92812119Y-100402761D02*
X93050214Y-101117047D01*
X92431166Y-101117047D01*
D11*
X108443500Y-89661276D02*
X108443500Y-90170724D01*
X109488500Y-89661276D02*
X109488500Y-90170724D01*
X100275276Y-78754500D02*
X100784724Y-78754500D01*
X100275276Y-77709500D02*
X100784724Y-77709500D01*
X101291276Y-82564500D02*
X101800724Y-82564500D01*
X101291276Y-81519500D02*
X101800724Y-81519500D01*
X108912724Y-86628500D02*
X108403276Y-86628500D01*
X108912724Y-85583500D02*
X108403276Y-85583500D01*
X93118233Y-100078000D02*
X93410767Y-100078000D01*
X93118233Y-99058000D02*
X93410767Y-99058000D01*
%LPC*%
D12*
X93418000Y-89144000D03*
D13*
X93418000Y-86604000D03*
X93418000Y-84064000D03*
X93418000Y-81524000D03*
D14*
X95840000Y-111760000D03*
X92040000Y-111760000D03*
X103940000Y-111760000D03*
X100140000Y-111760000D03*
D15*
X110690000Y-110490000D03*
D16*
X114190000Y-110490000D03*
D17*
X91640000Y-119380000D03*
D18*
X96720000Y-119380000D03*
D12*
X119580000Y-102245000D03*
D13*
X119580000Y-104785000D03*
X119580000Y-107325000D03*
X119580000Y-109865000D03*
D19*
X119197056Y-75197056D03*
X117500000Y-71100000D03*
X119900000Y-73500000D03*
X117500000Y-75900000D03*
D20*
X117500000Y-73500000D03*
D19*
X115802944Y-71802944D03*
X115802944Y-75197056D03*
X119197056Y-71802944D03*
X115100000Y-73500000D03*
D12*
X115770000Y-84079000D03*
D13*
X115770000Y-81539000D03*
D19*
X92500000Y-71100000D03*
X90802944Y-71802944D03*
X94197056Y-71802944D03*
D20*
X92500000Y-73500000D03*
D19*
X94197056Y-75197056D03*
X94900000Y-73500000D03*
X92500000Y-75900000D03*
X90100000Y-73500000D03*
X90802944Y-75197056D03*
D17*
X103135302Y-119380000D03*
D18*
X108215302Y-119380000D03*
X113295302Y-119380000D03*
X118375302Y-119380000D03*
D21*
X108966000Y-89003500D03*
X108966000Y-90828500D03*
D22*
X99617500Y-78232000D03*
X101442500Y-78232000D03*
X100633500Y-82042000D03*
X102458500Y-82042000D03*
D23*
X109570500Y-86106000D03*
X107745500Y-86106000D03*
D24*
X92402000Y-99568000D03*
X94127000Y-99568000D03*
M02*
